<svg xmlns="http://www.w3.org/2000/svg" xmlns:xlink="http://www.w3.org/1999/xlink" width="400" zoomAndPan="magnify" viewBox="0 0 300 299.999988" height="400" preserveAspectRatio="xMidYMid meet" version="1.0"><defs><g/><clipPath id="564114a925"><rect x="0" width="298" y="0" height="276"/></clipPath></defs><rect x="-30" width="360" fill="#ffffff" y="-29.999999" height="359.999986" fill-opacity="1"/><rect x="-30" width="360" fill="#ffffff" y="-29.999999" height="359.999986" fill-opacity="1"/><g transform="matrix(1, 0, 0, 1, 2, 0)"><g clip-path="url(#564114a925)"><g fill="#2a4035" fill-opacity="1"><g transform="translate(45.083442, 187.207286)"><g><path d="M 250.203125 -64.84375 C 251.023438 -64.664062 251.675781 -64.316406 252.15625 -63.796875 C 252.632812 -63.285156 252.738281 -62.789062 252.46875 -62.3125 C 252.15625 -61.875 251.8125 -61.601562 251.4375 -61.5 C 251.0625 -61.394531 250.648438 -61.375 250.203125 -61.4375 C 249.648438 -61.4375 249.082031 -61.472656 248.5 -61.546875 C 240.332031 -61.785156 229.515625 -61.3125 216.046875 -60.125 C 202.585938 -58.945312 191.738281 -57.789062 183.5 -56.65625 C 177.15625 -55.832031 170.8125 -54.941406 164.46875 -53.984375 C 164.332031 -53.984375 164.144531 -53.929688 163.90625 -53.828125 C 161.257812 -53.453125 158.835938 -52.472656 156.640625 -50.890625 C 148.578125 -45.398438 140.238281 -40.425781 131.625 -35.96875 C 123.019531 -31.507812 114.238281 -27.359375 105.28125 -23.515625 C 90.769531 -17.097656 75.9375 -11.503906 60.78125 -6.734375 C 57.6875 -5.910156 55.421875 -4.023438 53.984375 -1.078125 C 47.253906 12.335938 40.238281 25.457031 32.9375 38.28125 C 26.445312 49.707031 20.21875 61.269531 14.25 72.96875 C 14.25 73.039062 14.21875 73.109375 14.15625 73.171875 C 13.914062 73.796875 13.601562 74.296875 13.21875 74.671875 C 12.601562 75.179688 11.882812 75.367188 11.0625 75.234375 C 10.613281 75.367188 10.164062 75.367188 9.71875 75.234375 C 8.800781 74.859375 8.34375 74.171875 8.34375 73.171875 C 8.4375 71.523438 8.96875 69.984375 9.9375 68.546875 C 10 68.472656 10.03125 68.382812 10.03125 68.28125 C 16.070312 57.445312 22.015625 46.609375 27.859375 35.765625 C 33.710938 24.921875 39.367188 13.925781 44.828125 2.78125 C 45.265625 1.851562 45.707031 0.910156 46.15625 -0.046875 C 46.332031 -0.523438 46.519531 -1.023438 46.71875 -1.546875 C 46.207031 -1.679688 45.726562 -1.800781 45.28125 -1.90625 C 44.425781 -1.726562 43.585938 -1.488281 42.765625 -1.1875 C 42.453125 -1.113281 42.160156 -1.007812 41.890625 -0.875 C 31.316406 2.144531 20.628906 4.71875 9.828125 6.84375 C 2.347656 8.175781 -5.160156 9.117188 -12.703125 9.671875 C -13.085938 9.742188 -13.429688 9.78125 -13.734375 9.78125 C -14.492188 9.84375 -15.25 9.875 -16 9.875 C -18.914062 9.875 -21.75 9.429688 -24.5 8.546875 C -26.59375 7.785156 -27.84375 6.585938 -28.25 4.953125 C -28.664062 3.328125 -28.171875 1.570312 -26.765625 -0.3125 C -24.867188 -2.507812 -22.632812 -4.3125 -20.0625 -5.71875 C -14.238281 -9.351562 -8.117188 -12.335938 -1.703125 -14.671875 C 15.421875 -21.148438 32.78125 -26.84375 50.375 -31.75 C 51.34375 -32.0625 52.359375 -32.335938 53.421875 -32.578125 C 55.679688 -33.023438 57.785156 -33.6875 59.734375 -34.5625 C 61.691406 -35.4375 63.171875 -36.953125 64.171875 -39.109375 C 67.878906 -47.648438 71.445312 -56.203125 74.875 -64.765625 C 78.300781 -73.328125 81.492188 -82.03125 84.453125 -90.875 C 84.453125 -90.945312 84.484375 -91.050781 84.546875 -91.1875 C 84.992188 -92.800781 85.59375 -94.3125 86.34375 -95.71875 C 86.65625 -96.195312 87.0625 -96.53125 87.5625 -96.71875 C 88.0625 -96.90625 88.566406 -96.945312 89.078125 -96.84375 C 89.453125 -96.945312 89.863281 -96.945312 90.3125 -96.84375 C 91.445312 -96.570312 92.097656 -95.816406 92.265625 -94.578125 C 92.265625 -92.242188 91.835938 -89.984375 90.984375 -87.796875 C 90.984375 -87.722656 90.945312 -87.617188 90.875 -87.484375 C 87.175781 -76.160156 83.023438 -65.023438 78.421875 -54.078125 C 77.222656 -51.066406 75.988281 -48.082031 74.71875 -45.125 C 74.238281 -44.0625 73.773438 -42.96875 73.328125 -41.84375 C 72.742188 -40.5 72.503906 -39.578125 72.609375 -39.078125 C 72.710938 -38.585938 73.0625 -38.359375 73.65625 -38.390625 C 74.257812 -38.421875 74.992188 -38.59375 75.859375 -38.90625 C 76.128906 -38.96875 76.421875 -39.035156 76.734375 -39.109375 C 80.054688 -39.960938 83.378906 -40.800781 86.703125 -41.625 C 92.742188 -43.132812 98.816406 -44.644531 104.921875 -46.15625 C 119.878906 -49.6875 134.941406 -52.707031 150.109375 -55.21875 C 152.816406 -55.664062 155.1875 -56.710938 157.21875 -58.359375 C 161.53125 -61.617188 165.796875 -65.453125 170.015625 -69.859375 C 174.242188 -74.265625 177.738281 -79.015625 180.5 -84.109375 C 183.257812 -89.203125 184.5 -94.429688 184.21875 -99.796875 C 183.945312 -105.171875 181.476562 -110.5 176.8125 -115.78125 C 173.789062 -118.9375 170.363281 -121.578125 166.53125 -123.703125 C 158.425781 -128.066406 148.695312 -131.269531 137.34375 -133.3125 C 125.988281 -135.351562 113.816406 -136.429688 100.828125 -136.546875 C 87.847656 -136.671875 74.847656 -136.007812 61.828125 -134.5625 C 48.804688 -133.125 36.617188 -131.125 25.265625 -128.5625 C 13.910156 -126.007812 4.164062 -123.101562 -3.96875 -119.84375 C -11 -117.070312 -17.6875 -113.644531 -24.03125 -109.5625 C -26.601562 -107.976562 -29.019531 -106.242188 -31.28125 -104.359375 C -33.550781 -102.472656 -35.578125 -100.3125 -37.359375 -97.875 C -38.046875 -96.8125 -38.957031 -96.242188 -40.09375 -96.171875 C -40.332031 -96.171875 -40.601562 -96.171875 -40.90625 -96.171875 C -40.976562 -96.171875 -41.046875 -96.171875 -41.109375 -96.171875 C -41.554688 -96.171875 -41.984375 -96.234375 -42.390625 -96.359375 C -42.804688 -96.484375 -43.132812 -96.734375 -43.375 -97.109375 C -43.519531 -97.410156 -43.59375 -97.722656 -43.59375 -98.046875 C -43.59375 -98.378906 -43.554688 -98.664062 -43.484375 -98.90625 C -42.898438 -100.28125 -42.109375 -101.488281 -41.109375 -102.53125 C -40.117188 -103.582031 -39.109375 -104.601562 -38.078125 -105.59375 C -35.335938 -107.925781 -32.484375 -110.035156 -29.515625 -111.921875 C -26.546875 -113.804688 -23.5 -115.570312 -20.375 -117.21875 C -12.382812 -121.476562 -2.164062 -125.304688 10.28125 -128.703125 C 22.738281 -132.097656 36.421875 -134.832031 51.328125 -136.90625 C 66.234375 -138.976562 81.25 -140.109375 96.375 -140.296875 C 111.507812 -140.492188 125.679688 -139.492188 138.890625 -137.296875 C 152.097656 -135.097656 163.351562 -131.425781 172.65625 -126.28125 C 176.800781 -124.019531 180.519531 -121.125 183.8125 -117.59375 C 188.445312 -112.375 191.082031 -107.21875 191.71875 -102.125 C 192.351562 -97.03125 191.648438 -92.085938 189.609375 -87.296875 C 187.566406 -82.515625 184.75 -77.953125 181.15625 -73.609375 C 177.570312 -69.273438 173.894531 -65.21875 170.125 -61.4375 C 169.675781 -61.0625 169.226562 -60.585938 168.78125 -60.015625 C 168.34375 -59.453125 168.15625 -58.984375 168.21875 -58.609375 C 168.289062 -58.234375 168.859375 -58.113281 169.921875 -58.25 C 182.578125 -60.3125 195.207031 -61.863281 207.8125 -62.90625 C 220.425781 -63.957031 233.113281 -64.671875 245.875 -65.046875 C 246.25 -65.046875 246.59375 -65.046875 246.90625 -65.046875 L 247.015625 -65.046875 C 248.078125 -65.046875 249.140625 -64.976562 250.203125 -64.84375 Z M 50.953125 -9.9375 C 51.222656 -10.625 51.734375 -11.597656 52.484375 -12.859375 C 53.546875 -14.890625 54.660156 -17.128906 55.828125 -19.578125 C 56.992188 -22.035156 57.84375 -24.1875 58.375 -26.03125 C 58.90625 -27.882812 58.640625 -28.898438 57.578125 -29.078125 C 56.929688 -28.972656 56.300781 -28.816406 55.6875 -28.609375 C 55.539062 -28.609375 55.347656 -28.578125 55.109375 -28.515625 C 52.710938 -27.753906 50.296875 -27.03125 47.859375 -26.34375 C 42.054688 -24.664062 36.238281 -22.882812 30.40625 -21 C 30.132812 -20.925781 29.84375 -20.820312 29.53125 -20.6875 C 19.101562 -17.5 8.832031 -13.828125 -1.28125 -9.671875 C -6.394531 -7.578125 -11.25 -5.019531 -15.84375 -2 C -17.59375 -1.007812 -19.035156 0.304688 -20.171875 1.953125 C -20.617188 2.640625 -20.75 3.265625 -20.5625 3.828125 C -20.375 4.398438 -19.898438 4.835938 -19.140625 5.140625 C -17.566406 5.660156 -15.957031 5.921875 -14.3125 5.921875 C -12.863281 5.921875 -11.421875 5.851562 -9.984375 5.71875 C -9.910156 5.71875 -9.875 5.71875 -9.875 5.71875 C -2.394531 4.957031 4.960938 3.738281 12.203125 2.0625 C 23.691406 -0.476562 35.046875 -3.445312 46.265625 -6.84375 C 46.429688 -6.945312 46.550781 -7 46.625 -7 C 47.519531 -7.207031 48.34375 -7.515625 49.09375 -7.921875 C 49.84375 -8.335938 50.460938 -9.007812 50.953125 -9.9375 Z M 60.5625 -11.9375 C 67.363281 -13.6875 76.613281 -16.953125 88.3125 -21.734375 C 100.007812 -26.523438 111.25 -31.585938 122.03125 -36.921875 C 132.820312 -42.253906 140.175781 -46.65625 144.09375 -50.125 C 143.570312 -50.125 143.125 -50.125 142.75 -50.125 C 142.582031 -50.125 142.460938 -50.125 142.390625 -50.125 C 118.679688 -45.425781 95.21875 -39.832031 72 -33.34375 C 69.9375 -32.757812 68.523438 -31.523438 67.765625 -29.640625 C 66.359375 -26.617188 64.972656 -23.632812 63.609375 -20.6875 C 62.546875 -18.488281 61.484375 -16.257812 60.421875 -14 C 60.273438 -13.6875 60.1875 -13.34375 60.15625 -12.96875 C 60.125 -12.59375 60.257812 -12.25 60.5625 -11.9375 Z M 60.5625 -11.9375 "/></g></g></g></g></g></svg>