<svg xmlns="http://www.w3.org/2000/svg" xmlns:xlink="http://www.w3.org/1999/xlink" width="450" zoomAndPan="magnify" viewBox="0 0 337.5 157.5" height="210" preserveAspectRatio="xMidYMid meet" version="1.2"><defs/><g id="1895cb13a0"><g style="fill:#f7f5f2;fill-opacity:1;"><g transform="translate(94.984413, 129.839418)"><path style="stroke:none" d="M 7.890625 -5.640625 C 7.929688 -5.609375 7.953125 -5.53125 7.953125 -5.40625 C 7.953125 -4.957031 7.953125 -4.507812 7.953125 -4.0625 C 7.953125 -3.625 7.945312 -3.179688 7.9375 -2.734375 C 7.9375 -2.390625 7.894531 -2.035156 7.8125 -1.671875 C 7.738281 -1.316406 7.585938 -1 7.359375 -0.71875 C 7.265625 -0.59375 7.140625 -0.488281 6.984375 -0.40625 C 6.835938 -0.320312 6.6875 -0.25 6.53125 -0.1875 C 5.78125 0.0625 4.984375 0.15625 4.140625 0.09375 C 3.710938 0.0625 3.269531 -0.0234375 2.8125 -0.171875 C 2.519531 -0.273438 2.265625 -0.429688 2.046875 -0.640625 C 1.929688 -0.753906 1.847656 -0.84375 1.796875 -0.90625 C 1.742188 -0.96875 1.671875 -1.101562 1.578125 -1.3125 C 1.429688 -1.613281 1.332031 -1.929688 1.28125 -2.265625 C 1.238281 -2.609375 1.207031 -2.960938 1.1875 -3.328125 C 1.1875 -4.222656 1.1875 -5.113281 1.1875 -6 C 1.1875 -6.894531 1.1875 -7.785156 1.1875 -8.671875 C 1.175781 -9.421875 1.179688 -10.179688 1.203125 -10.953125 C 1.222656 -11.734375 1.234375 -12.488281 1.234375 -13.21875 C 1.234375 -13.726562 1.273438 -14.234375 1.359375 -14.734375 C 1.441406 -15.234375 1.6875 -15.660156 2.09375 -16.015625 C 2.300781 -16.203125 2.53125 -16.34375 2.78125 -16.4375 C 3.039062 -16.53125 3.304688 -16.601562 3.578125 -16.65625 C 3.796875 -16.707031 4.015625 -16.734375 4.234375 -16.734375 C 4.460938 -16.742188 4.6875 -16.742188 4.90625 -16.734375 C 5.144531 -16.734375 5.378906 -16.707031 5.609375 -16.65625 C 5.835938 -16.601562 6.066406 -16.546875 6.296875 -16.484375 C 6.609375 -16.421875 6.882812 -16.300781 7.125 -16.125 C 7.363281 -15.957031 7.539062 -15.722656 7.65625 -15.421875 C 7.78125 -15.128906 7.859375 -14.828125 7.890625 -14.515625 C 7.921875 -14.210938 7.9375 -13.910156 7.9375 -13.609375 C 7.945312 -12.847656 7.953125 -12.082031 7.953125 -11.3125 C 7.953125 -11.1875 7.875 -11.125 7.71875 -11.125 C 7.445312 -11.125 7.171875 -11.125 6.890625 -11.125 C 6.617188 -11.125 6.347656 -11.125 6.078125 -11.125 C 6.023438 -11.125 5.96875 -11.125 5.90625 -11.125 C 5.84375 -11.125 5.789062 -11.132812 5.75 -11.15625 C 5.664062 -11.15625 5.609375 -11.171875 5.578125 -11.203125 C 5.546875 -11.234375 5.53125 -11.285156 5.53125 -11.359375 C 5.53125 -11.523438 5.53125 -11.691406 5.53125 -11.859375 C 5.53125 -12.023438 5.53125 -12.1875 5.53125 -12.34375 C 5.507812 -12.59375 5.503906 -12.90625 5.515625 -13.28125 C 5.523438 -13.65625 5.410156 -13.921875 5.171875 -14.078125 C 5.015625 -14.160156 4.847656 -14.207031 4.671875 -14.21875 C 4.492188 -14.238281 4.316406 -14.222656 4.140625 -14.171875 C 3.984375 -14.140625 3.859375 -14.046875 3.765625 -13.890625 C 3.671875 -13.742188 3.609375 -13.59375 3.578125 -13.4375 C 3.578125 -12.53125 3.578125 -11.625 3.578125 -10.71875 C 3.585938 -9.8125 3.585938 -8.90625 3.578125 -8 C 3.578125 -7.257812 3.578125 -6.503906 3.578125 -5.734375 C 3.585938 -4.972656 3.585938 -4.210938 3.578125 -3.453125 C 3.554688 -3.203125 3.601562 -2.96875 3.71875 -2.75 C 3.84375 -2.539062 4.054688 -2.425781 4.359375 -2.40625 C 4.503906 -2.382812 4.660156 -2.382812 4.828125 -2.40625 C 4.992188 -2.4375 5.128906 -2.5 5.234375 -2.59375 C 5.347656 -2.71875 5.425781 -2.863281 5.46875 -3.03125 C 5.507812 -3.195312 5.53125 -3.363281 5.53125 -3.53125 C 5.53125 -3.84375 5.53125 -4.15625 5.53125 -4.46875 C 5.53125 -4.789062 5.535156 -5.113281 5.546875 -5.4375 C 5.535156 -5.601562 5.617188 -5.679688 5.796875 -5.671875 C 5.992188 -5.671875 6.191406 -5.671875 6.390625 -5.671875 C 6.597656 -5.671875 6.800781 -5.671875 7 -5.671875 C 7.113281 -5.671875 7.226562 -5.671875 7.34375 -5.671875 C 7.46875 -5.671875 7.585938 -5.671875 7.703125 -5.671875 C 7.773438 -5.671875 7.828125 -5.660156 7.859375 -5.640625 Z M 7.890625 -5.640625 "/></g></g><g style="fill:#f7f5f2;fill-opacity:1;"><g transform="translate(104.133974, 129.839418)"><path style="stroke:none" d="M 7.890625 -11.65625 C 7.867188 -9.75 7.863281 -7.835938 7.875 -5.921875 C 7.894531 -4.003906 7.890625 -2.09375 7.859375 -0.1875 C 7.828125 -0.0820312 7.664062 -0.0195312 7.375 0 C 7.09375 0.0195312 6.796875 0.0195312 6.484375 0 C 6.179688 -0.0195312 5.96875 -0.0195312 5.84375 0 C 5.644531 0.0195312 5.53125 -0.03125 5.5 -0.15625 C 5.46875 -0.289062 5.453125 -0.4375 5.453125 -0.59375 C 5.453125 -1.007812 5.457031 -1.421875 5.46875 -1.828125 C 5.476562 -2.242188 5.472656 -2.660156 5.453125 -3.078125 C 5.441406 -3.171875 5.328125 -3.222656 5.109375 -3.234375 C 4.898438 -3.253906 4.671875 -3.253906 4.421875 -3.234375 C 4.171875 -3.222656 4 -3.222656 3.90625 -3.234375 C 3.6875 -3.285156 3.570312 -3.226562 3.5625 -3.0625 C 3.550781 -2.90625 3.546875 -2.757812 3.546875 -2.625 C 3.546875 -2.269531 3.546875 -1.921875 3.546875 -1.578125 C 3.546875 -1.242188 3.546875 -0.898438 3.546875 -0.546875 C 3.546875 -0.421875 3.535156 -0.289062 3.515625 -0.15625 C 3.492188 -0.03125 3.398438 0.03125 3.234375 0.03125 C 2.984375 0.03125 2.722656 0.03125 2.453125 0.03125 C 2.179688 0.03125 1.921875 0.0195312 1.671875 0 C 1.609375 0 1.535156 0 1.453125 0 C 1.367188 0 1.304688 -0.0234375 1.265625 -0.078125 C 1.203125 -0.234375 1.175781 -0.398438 1.1875 -0.578125 C 1.207031 -0.765625 1.207031 -0.945312 1.1875 -1.125 C 1.207031 -3.195312 1.21875 -5.265625 1.21875 -7.328125 C 1.21875 -9.398438 1.234375 -11.476562 1.265625 -13.5625 C 1.179688 -14.363281 1.296875 -15.003906 1.609375 -15.484375 C 1.929688 -15.960938 2.375 -16.300781 2.9375 -16.5 C 3.5 -16.695312 4.113281 -16.773438 4.78125 -16.734375 C 5.457031 -16.691406 6.085938 -16.5625 6.671875 -16.34375 C 7.085938 -16.1875 7.378906 -15.921875 7.546875 -15.546875 C 7.722656 -15.171875 7.828125 -14.75 7.859375 -14.28125 C 7.890625 -13.8125 7.894531 -13.347656 7.875 -12.890625 C 7.851562 -12.429688 7.859375 -12.019531 7.890625 -11.65625 Z M 5.53125 -9.609375 C 5.507812 -10.273438 5.519531 -10.941406 5.5625 -11.609375 C 5.601562 -12.285156 5.5625 -12.957031 5.4375 -13.625 C 5.382812 -13.945312 5.195312 -14.144531 4.875 -14.21875 C 4.5625 -14.289062 4.28125 -14.273438 4.03125 -14.171875 C 3.832031 -14.097656 3.703125 -13.960938 3.640625 -13.765625 C 3.578125 -13.578125 3.539062 -13.390625 3.53125 -13.203125 C 3.53125 -11.992188 3.535156 -10.78125 3.546875 -9.5625 C 3.566406 -8.351562 3.578125 -7.144531 3.578125 -5.9375 C 3.554688 -5.8125 3.585938 -5.734375 3.671875 -5.703125 C 3.765625 -5.679688 3.859375 -5.671875 3.953125 -5.671875 C 4.191406 -5.679688 4.441406 -5.675781 4.703125 -5.65625 C 4.960938 -5.632812 5.210938 -5.65625 5.453125 -5.71875 C 5.515625 -6.351562 5.535156 -6.992188 5.515625 -7.640625 C 5.503906 -8.296875 5.507812 -8.953125 5.53125 -9.609375 Z M 5.53125 -9.609375 "/></g></g><g style="fill:#f7f5f2;fill-opacity:1;"><g transform="translate(113.212059, 129.839418)"><path style="stroke:none" d="M 7.703125 -16.46875 C 7.773438 -16.414062 7.816406 -16.257812 7.828125 -16 C 7.835938 -15.75 7.835938 -15.488281 7.828125 -15.21875 C 7.816406 -14.957031 7.820312 -14.757812 7.84375 -14.625 C 7.84375 -14.5 7.816406 -14.390625 7.765625 -14.296875 C 7.722656 -14.203125 7.628906 -14.160156 7.484375 -14.171875 C 6.585938 -14.140625 5.878906 -14.140625 5.359375 -14.171875 C 4.835938 -14.203125 4.441406 -14.210938 4.171875 -14.203125 C 3.910156 -14.203125 3.738281 -14.132812 3.65625 -14 C 3.570312 -13.863281 3.53125 -13.613281 3.53125 -13.25 C 3.539062 -12.882812 3.554688 -12.359375 3.578125 -11.671875 C 3.546875 -11.484375 3.585938 -11.328125 3.703125 -11.203125 C 3.828125 -11.085938 3.984375 -11.046875 4.171875 -11.078125 C 4.410156 -11.078125 4.691406 -11.078125 5.015625 -11.078125 C 5.335938 -11.078125 5.632812 -11.078125 5.90625 -11.078125 C 6.175781 -11.078125 6.367188 -11.078125 6.484375 -11.078125 C 6.585938 -11.097656 6.65625 -11.054688 6.6875 -10.953125 C 6.726562 -10.859375 6.738281 -10.765625 6.71875 -10.671875 C 6.71875 -10.453125 6.71875 -10.222656 6.71875 -9.984375 C 6.71875 -9.742188 6.71875 -9.515625 6.71875 -9.296875 C 6.71875 -9.171875 6.695312 -9.054688 6.65625 -8.953125 C 6.613281 -8.847656 6.523438 -8.796875 6.390625 -8.796875 C 6.085938 -8.773438 5.785156 -8.765625 5.484375 -8.765625 C 5.191406 -8.765625 4.894531 -8.765625 4.59375 -8.765625 C 4.40625 -8.753906 4.1875 -8.738281 3.9375 -8.71875 C 3.695312 -8.707031 3.582031 -8.554688 3.59375 -8.265625 C 3.582031 -7.023438 3.582031 -5.789062 3.59375 -4.5625 C 3.613281 -3.332031 3.625 -2.101562 3.625 -0.875 C 3.601562 -0.71875 3.597656 -0.535156 3.609375 -0.328125 C 3.628906 -0.128906 3.519531 -0.0351562 3.28125 -0.046875 C 2.582031 -0.0351562 2.085938 -0.03125 1.796875 -0.03125 C 1.503906 -0.0390625 1.328125 -0.101562 1.265625 -0.21875 C 1.203125 -0.34375 1.1875 -0.570312 1.21875 -0.90625 C 1.257812 -1.25 1.257812 -1.75 1.21875 -2.40625 C 1.21875 -4.195312 1.21875 -5.984375 1.21875 -7.765625 C 1.226562 -9.546875 1.226562 -11.328125 1.21875 -13.109375 C 1.226562 -13.472656 1.226562 -13.835938 1.21875 -14.203125 C 1.21875 -14.578125 1.207031 -14.953125 1.1875 -15.328125 C 1.207031 -15.492188 1.207031 -15.679688 1.1875 -15.890625 C 1.175781 -16.097656 1.203125 -16.28125 1.265625 -16.4375 C 1.484375 -16.488281 1.816406 -16.519531 2.265625 -16.53125 C 2.710938 -16.550781 3.210938 -16.5625 3.765625 -16.5625 C 4.316406 -16.5625 4.859375 -16.550781 5.390625 -16.53125 C 5.921875 -16.519531 6.394531 -16.503906 6.8125 -16.484375 C 7.226562 -16.472656 7.523438 -16.46875 7.703125 -16.46875 Z M 7.703125 -16.46875 "/></g></g><g style="fill:#f7f5f2;fill-opacity:1;"><g transform="translate(122.242488, 129.839418)"><path style="stroke:none" d="M 7.890625 -2.125 C 7.898438 -2.039062 7.898438 -1.957031 7.890625 -1.875 C 7.890625 -1.800781 7.890625 -1.722656 7.890625 -1.640625 C 7.867188 -1.210938 7.863281 -0.890625 7.875 -0.671875 C 7.894531 -0.460938 7.878906 -0.3125 7.828125 -0.21875 C 7.785156 -0.132812 7.679688 -0.0859375 7.515625 -0.078125 C 7.347656 -0.078125 7.078125 -0.078125 6.703125 -0.078125 C 5.898438 -0.078125 5.109375 -0.0703125 4.328125 -0.0625 C 3.554688 -0.0507812 2.773438 -0.0390625 1.984375 -0.03125 C 1.835938 -0.0390625 1.664062 -0.0507812 1.46875 -0.0625 C 1.28125 -0.0703125 1.195312 -0.1875 1.21875 -0.40625 C 1.21875 -2.320312 1.21875 -4.238281 1.21875 -6.15625 C 1.21875 -8.082031 1.21875 -10.007812 1.21875 -11.9375 C 1.21875 -12.269531 1.21875 -12.597656 1.21875 -12.921875 C 1.21875 -13.253906 1.21875 -13.578125 1.21875 -13.890625 C 1.21875 -14.285156 1.210938 -14.671875 1.203125 -15.046875 C 1.191406 -15.429688 1.1875 -15.828125 1.1875 -16.234375 C 1.1875 -16.335938 1.210938 -16.40625 1.265625 -16.4375 C 1.273438 -16.488281 1.3125 -16.515625 1.375 -16.515625 C 1.445312 -16.523438 1.503906 -16.53125 1.546875 -16.53125 C 1.671875 -16.53125 1.800781 -16.535156 1.9375 -16.546875 C 2.070312 -16.554688 2.210938 -16.5625 2.359375 -16.5625 C 2.847656 -16.539062 3.34375 -16.53125 3.84375 -16.53125 C 4.34375 -16.53125 4.84375 -16.53125 5.34375 -16.53125 C 5.59375 -16.53125 5.84375 -16.53125 6.09375 -16.53125 C 6.351562 -16.53125 6.609375 -16.53125 6.859375 -16.53125 C 6.941406 -16.53125 7.019531 -16.53125 7.09375 -16.53125 C 7.175781 -16.53125 7.257812 -16.53125 7.34375 -16.53125 C 7.40625 -16.53125 7.472656 -16.523438 7.546875 -16.515625 C 7.617188 -16.515625 7.675781 -16.5 7.71875 -16.46875 C 7.769531 -16.4375 7.796875 -16.363281 7.796875 -16.25 C 7.804688 -16.0625 7.8125 -15.859375 7.8125 -15.640625 C 7.8125 -15.429688 7.8125 -15.222656 7.8125 -15.015625 C 7.8125 -14.929688 7.8125 -14.84375 7.8125 -14.75 C 7.8125 -14.664062 7.8125 -14.585938 7.8125 -14.515625 C 7.8125 -14.335938 7.757812 -14.238281 7.65625 -14.21875 C 7.476562 -14.21875 7.171875 -14.210938 6.734375 -14.203125 C 6.304688 -14.203125 5.84375 -14.203125 5.34375 -14.203125 C 4.84375 -14.203125 4.40625 -14.203125 4.03125 -14.203125 C 3.976562 -14.203125 3.925781 -14.203125 3.875 -14.203125 C 3.832031 -14.203125 3.785156 -14.1875 3.734375 -14.15625 C 3.597656 -14.101562 3.535156 -13.972656 3.546875 -13.765625 C 3.535156 -13.453125 3.53125 -13.070312 3.53125 -12.625 C 3.539062 -12.1875 3.546875 -11.816406 3.546875 -11.515625 C 3.546875 -11.210938 3.691406 -11.066406 3.984375 -11.078125 C 4.222656 -11.078125 4.515625 -11.078125 4.859375 -11.078125 C 5.210938 -11.078125 5.539062 -11.078125 5.84375 -11.078125 C 6.144531 -11.078125 6.359375 -11.078125 6.484375 -11.078125 C 6.546875 -11.078125 6.59375 -11.070312 6.625 -11.0625 C 6.675781 -11.03125 6.703125 -10.972656 6.703125 -10.890625 C 6.710938 -10.804688 6.71875 -10.742188 6.71875 -10.703125 C 6.71875 -10.460938 6.71875 -10.222656 6.71875 -9.984375 C 6.71875 -9.742188 6.710938 -9.515625 6.703125 -9.296875 C 6.703125 -9.203125 6.695312 -9.101562 6.6875 -9 C 6.675781 -8.894531 6.613281 -8.832031 6.5 -8.8125 C 6.195312 -8.769531 5.882812 -8.75 5.5625 -8.75 C 5.238281 -8.757812 4.914062 -8.765625 4.59375 -8.765625 C 4.519531 -8.765625 4.429688 -8.757812 4.328125 -8.75 C 4.222656 -8.75 4.128906 -8.75 4.046875 -8.75 C 3.972656 -8.75 3.894531 -8.734375 3.8125 -8.703125 C 3.726562 -8.679688 3.671875 -8.640625 3.640625 -8.578125 C 3.597656 -8.492188 3.578125 -8.398438 3.578125 -8.296875 C 3.578125 -8.203125 3.578125 -8.113281 3.578125 -8.03125 C 3.578125 -7.96875 3.578125 -7.898438 3.578125 -7.828125 C 3.578125 -7.753906 3.578125 -7.6875 3.578125 -7.625 C 3.578125 -6.8125 3.578125 -6 3.578125 -5.1875 C 3.585938 -4.382812 3.601562 -3.578125 3.625 -2.765625 C 3.625 -2.648438 3.644531 -2.570312 3.6875 -2.53125 C 3.75 -2.445312 3.863281 -2.394531 4.03125 -2.375 C 4.40625 -2.375 4.882812 -2.378906 5.46875 -2.390625 C 6.0625 -2.398438 6.566406 -2.40625 6.984375 -2.40625 C 7.191406 -2.40625 7.335938 -2.40625 7.421875 -2.40625 C 7.503906 -2.40625 7.601562 -2.394531 7.71875 -2.375 C 7.832031 -2.363281 7.890625 -2.28125 7.890625 -2.125 Z M 7.890625 -2.125 "/></g></g><g style="fill:#f7f5f2;fill-opacity:1;"><g transform="translate(131.344395, 129.839418)"><path style="stroke:none" d=""/></g></g><g style="fill:#f7f5f2;fill-opacity:1;"><g transform="translate(136.133618, 129.839418)"><path style="stroke:none" d="M 12.9375 -0.171875 C 12.96875 -0.117188 12.984375 -0.0703125 12.984375 -0.03125 C 12.972656 0.0507812 12.925781 0.101562 12.84375 0.125 C 12.757812 0.15625 12.6875 0.171875 12.625 0.171875 C 12.34375 0.179688 12.085938 0.1875 11.859375 0.1875 C 11.628906 0.1875 11.367188 0.195312 11.078125 0.21875 C 10.992188 0.21875 10.910156 0.210938 10.828125 0.203125 C 10.742188 0.191406 10.675781 0.15625 10.625 0.09375 C 10.507812 -0.0820312 10.34375 -0.335938 10.125 -0.671875 C 9.914062 -1.015625 9.734375 -1.285156 9.578125 -1.484375 C 9.492188 -1.546875 9.414062 -1.550781 9.34375 -1.5 C 9.28125 -1.445312 9.222656 -1.398438 9.171875 -1.359375 C 9.054688 -1.242188 8.921875 -1.117188 8.765625 -0.984375 C 8.609375 -0.847656 8.4375 -0.71875 8.25 -0.59375 C 7.050781 0.21875 5.765625 0.398438 4.390625 -0.046875 C 3.429688 -0.296875 2.691406 -0.742188 2.171875 -1.390625 C 1.660156 -2.046875 1.347656 -2.796875 1.234375 -3.640625 C 1.128906 -4.484375 1.203125 -5.316406 1.453125 -6.140625 C 1.703125 -6.972656 2.125 -7.695312 2.71875 -8.3125 C 2.90625 -8.539062 3.117188 -8.75 3.359375 -8.9375 C 3.453125 -9.007812 3.484375 -9.085938 3.453125 -9.171875 C 3.117188 -9.585938 2.921875 -10.007812 2.859375 -10.4375 C 2.796875 -10.863281 2.75 -11.332031 2.71875 -11.84375 C 2.695312 -12.332031 2.691406 -12.828125 2.703125 -13.328125 C 2.710938 -13.828125 2.796875 -14.316406 2.953125 -14.796875 C 3.015625 -15.046875 3.101562 -15.289062 3.21875 -15.53125 C 3.34375 -15.769531 3.515625 -15.960938 3.734375 -16.109375 C 4.398438 -16.453125 5.128906 -16.632812 5.921875 -16.65625 C 6.722656 -16.6875 7.472656 -16.582031 8.171875 -16.34375 C 8.378906 -16.269531 8.566406 -16.164062 8.734375 -16.03125 C 8.910156 -15.90625 9.050781 -15.75 9.15625 -15.5625 C 9.5 -14.875 9.671875 -14.148438 9.671875 -13.390625 C 9.671875 -12.992188 9.675781 -12.582031 9.6875 -12.15625 C 9.695312 -11.738281 9.648438 -11.328125 9.546875 -10.921875 C 9.441406 -10.515625 9.226562 -10.144531 8.90625 -9.8125 C 8.707031 -9.59375 8.472656 -9.394531 8.203125 -9.21875 C 7.941406 -9.039062 7.6875 -8.867188 7.4375 -8.703125 C 7.375 -8.648438 7.304688 -8.59375 7.234375 -8.53125 C 7.171875 -8.46875 7.164062 -8.390625 7.21875 -8.296875 C 7.394531 -8.054688 7.625 -7.738281 7.90625 -7.34375 C 8.195312 -6.945312 8.492188 -6.546875 8.796875 -6.140625 C 9.097656 -5.734375 9.332031 -5.410156 9.5 -5.171875 C 9.570312 -5.109375 9.640625 -5.085938 9.703125 -5.109375 C 9.773438 -5.128906 9.835938 -5.171875 9.890625 -5.234375 C 10.066406 -5.460938 10.285156 -5.742188 10.546875 -6.078125 C 10.804688 -6.410156 11.015625 -6.6875 11.171875 -6.90625 C 11.203125 -6.957031 11.238281 -7 11.28125 -7.03125 C 11.320312 -7.070312 11.363281 -7.101562 11.40625 -7.125 C 11.519531 -7.175781 11.613281 -7.164062 11.6875 -7.09375 C 11.757812 -7.03125 11.832031 -6.953125 11.90625 -6.859375 C 12.019531 -6.734375 12.144531 -6.585938 12.28125 -6.421875 C 12.414062 -6.253906 12.546875 -6.109375 12.671875 -5.984375 C 12.765625 -5.890625 12.789062 -5.785156 12.75 -5.671875 C 12.71875 -5.554688 12.671875 -5.453125 12.609375 -5.359375 C 12.429688 -5.078125 12.203125 -4.765625 11.921875 -4.421875 C 11.648438 -4.078125 11.394531 -3.78125 11.15625 -3.53125 C 11.101562 -3.476562 11.054688 -3.410156 11.015625 -3.328125 C 10.972656 -3.253906 10.976562 -3.175781 11.03125 -3.09375 C 11.082031 -3.019531 11.1875 -2.863281 11.34375 -2.625 C 11.5 -2.382812 11.675781 -2.109375 11.875 -1.796875 C 12.070312 -1.484375 12.265625 -1.179688 12.453125 -0.890625 C 12.648438 -0.597656 12.8125 -0.359375 12.9375 -0.171875 Z M 5.1875 -12.109375 C 5.1875 -11.867188 5.210938 -11.628906 5.265625 -11.390625 C 5.328125 -11.148438 5.421875 -10.925781 5.546875 -10.71875 C 5.609375 -10.625 5.679688 -10.539062 5.765625 -10.46875 C 5.859375 -10.394531 5.953125 -10.320312 6.046875 -10.25 C 6.160156 -10.15625 6.28125 -10.160156 6.40625 -10.265625 C 6.46875 -10.328125 6.535156 -10.390625 6.609375 -10.453125 C 6.679688 -10.523438 6.75 -10.597656 6.8125 -10.671875 C 7.019531 -10.972656 7.144531 -11.304688 7.1875 -11.671875 C 7.226562 -12.035156 7.234375 -12.398438 7.203125 -12.765625 C 7.179688 -12.941406 7.148438 -13.15625 7.109375 -13.40625 C 7.066406 -13.664062 6.976562 -13.851562 6.84375 -13.96875 C 6.695312 -14.09375 6.5 -14.15625 6.25 -14.15625 C 6.007812 -14.164062 5.804688 -14.125 5.640625 -14.03125 C 5.546875 -13.988281 5.472656 -13.914062 5.421875 -13.8125 C 5.378906 -13.71875 5.351562 -13.617188 5.34375 -13.515625 C 5.269531 -13.285156 5.222656 -13.050781 5.203125 -12.8125 C 5.191406 -12.582031 5.1875 -12.347656 5.1875 -12.109375 Z M 7.578125 -3.078125 C 7.585938 -3.148438 7.578125 -3.210938 7.546875 -3.265625 C 7.515625 -3.304688 7.457031 -3.390625 7.375 -3.515625 C 7.289062 -3.648438 7.179688 -3.804688 7.046875 -3.984375 C 6.816406 -4.316406 6.5625 -4.679688 6.28125 -5.078125 C 6 -5.484375 5.742188 -5.847656 5.515625 -6.171875 C 5.285156 -6.503906 5.128906 -6.726562 5.046875 -6.84375 C 4.984375 -6.9375 4.914062 -6.988281 4.84375 -7 C 4.738281 -7.019531 4.640625 -6.988281 4.546875 -6.90625 C 4.453125 -6.832031 4.363281 -6.765625 4.28125 -6.703125 C 4.113281 -6.566406 3.960938 -6.421875 3.828125 -6.265625 C 3.691406 -6.117188 3.578125 -5.960938 3.484375 -5.796875 C 3.316406 -5.492188 3.238281 -5.15625 3.25 -4.78125 C 3.257812 -4.414062 3.335938 -4.0625 3.484375 -3.71875 C 3.617188 -3.320312 3.859375 -2.972656 4.203125 -2.671875 C 4.554688 -2.367188 4.96875 -2.207031 5.4375 -2.1875 C 5.707031 -2.1875 5.972656 -2.21875 6.234375 -2.28125 C 6.492188 -2.34375 6.734375 -2.441406 6.953125 -2.578125 C 7.035156 -2.617188 7.113281 -2.660156 7.1875 -2.703125 C 7.269531 -2.742188 7.34375 -2.796875 7.40625 -2.859375 C 7.4375 -2.890625 7.46875 -2.921875 7.5 -2.953125 C 7.53125 -2.984375 7.554688 -3.015625 7.578125 -3.046875 Z M 7.578125 -3.078125 "/></g></g><g style="fill:#f7f5f2;fill-opacity:1;"><g transform="translate(150.310677, 129.839418)"><path style="stroke:none" d=""/></g></g><g style="fill:#f7f5f2;fill-opacity:1;"><g transform="translate(155.0999, 129.839418)"><path style="stroke:none" d="M 9.65625 -16.703125 C 9.75 -16.648438 9.78125 -16.570312 9.75 -16.46875 C 9.65625 -15.957031 9.546875 -15.363281 9.421875 -14.6875 C 9.304688 -14.007812 9.179688 -13.304688 9.046875 -12.578125 C 8.910156 -11.847656 8.78125 -11.144531 8.65625 -10.46875 C 8.539062 -9.789062 8.4375 -9.203125 8.34375 -8.703125 C 8.25 -8.203125 8.1875 -7.859375 8.15625 -7.671875 C 7.925781 -6.453125 7.707031 -5.21875 7.5 -3.96875 C 7.300781 -2.71875 7.082031 -1.484375 6.84375 -0.265625 C 6.789062 -0.148438 6.710938 -0.09375 6.609375 -0.09375 C 6.503906 -0.09375 6.40625 -0.0859375 6.3125 -0.078125 C 6.101562 -0.078125 5.894531 -0.078125 5.6875 -0.078125 C 5.488281 -0.078125 5.285156 -0.078125 5.078125 -0.078125 C 4.984375 -0.078125 4.882812 -0.078125 4.78125 -0.078125 C 4.6875 -0.0859375 4.59375 -0.09375 4.5 -0.09375 C 4.25 -0.0820312 4.109375 -0.191406 4.078125 -0.421875 C 3.847656 -1.628906 3.625 -2.851562 3.40625 -4.09375 C 3.195312 -5.332031 2.988281 -6.554688 2.78125 -7.765625 C 2.75 -7.941406 2.6875 -8.273438 2.59375 -8.765625 C 2.5 -9.253906 2.390625 -9.832031 2.265625 -10.5 C 2.148438 -11.175781 2.023438 -11.878906 1.890625 -12.609375 C 1.753906 -13.335938 1.625 -14.035156 1.5 -14.703125 C 1.382812 -15.378906 1.28125 -15.957031 1.1875 -16.4375 C 1.15625 -16.59375 1.210938 -16.691406 1.359375 -16.734375 C 1.578125 -16.734375 1.832031 -16.734375 2.125 -16.734375 C 2.425781 -16.734375 2.703125 -16.734375 2.953125 -16.734375 C 3.035156 -16.734375 3.128906 -16.734375 3.234375 -16.734375 C 3.335938 -16.734375 3.425781 -16.695312 3.5 -16.625 C 3.53125 -16.59375 3.550781 -16.550781 3.5625 -16.5 C 3.582031 -16.457031 3.601562 -16.40625 3.625 -16.34375 C 3.632812 -16.300781 3.644531 -16.25 3.65625 -16.1875 C 3.664062 -16.132812 3.675781 -16.082031 3.6875 -16.03125 C 3.707031 -15.925781 3.722656 -15.820312 3.734375 -15.71875 C 3.753906 -15.613281 3.769531 -15.515625 3.78125 -15.421875 C 3.851562 -15.023438 3.921875 -14.625 3.984375 -14.21875 C 4.054688 -13.820312 4.132812 -13.4375 4.21875 -13.0625 C 4.300781 -12.5 4.390625 -11.945312 4.484375 -11.40625 C 4.585938 -10.875 4.691406 -10.328125 4.796875 -9.765625 C 4.867188 -9.359375 4.941406 -8.910156 5.015625 -8.421875 C 5.097656 -7.941406 5.171875 -7.476562 5.234375 -7.03125 C 5.253906 -6.945312 5.285156 -6.859375 5.328125 -6.765625 C 5.378906 -6.671875 5.453125 -6.648438 5.546875 -6.703125 C 5.609375 -6.734375 5.648438 -6.8125 5.671875 -6.9375 C 5.734375 -7.28125 5.789062 -7.640625 5.84375 -8.015625 C 5.90625 -8.390625 5.96875 -8.734375 6.03125 -9.046875 C 6.132812 -9.765625 6.25 -10.457031 6.375 -11.125 C 6.507812 -11.789062 6.632812 -12.472656 6.75 -13.171875 C 6.875 -13.710938 6.972656 -14.253906 7.046875 -14.796875 C 7.128906 -15.347656 7.226562 -15.894531 7.34375 -16.4375 C 7.375 -16.59375 7.457031 -16.679688 7.59375 -16.703125 C 7.738281 -16.722656 7.875 -16.734375 8 -16.734375 C 8.226562 -16.734375 8.476562 -16.734375 8.75 -16.734375 C 9.03125 -16.734375 9.265625 -16.734375 9.453125 -16.734375 C 9.535156 -16.734375 9.59375 -16.722656 9.625 -16.703125 Z M 9.65625 -16.703125 "/></g></g><g style="fill:#f7f5f2;fill-opacity:1;"><g transform="translate(166.036485, 129.839418)"><path style="stroke:none" d="M 7.890625 -2.125 C 7.898438 -2.039062 7.898438 -1.957031 7.890625 -1.875 C 7.890625 -1.800781 7.890625 -1.722656 7.890625 -1.640625 C 7.867188 -1.210938 7.863281 -0.890625 7.875 -0.671875 C 7.894531 -0.460938 7.878906 -0.3125 7.828125 -0.21875 C 7.785156 -0.132812 7.679688 -0.0859375 7.515625 -0.078125 C 7.347656 -0.078125 7.078125 -0.078125 6.703125 -0.078125 C 5.898438 -0.078125 5.109375 -0.0703125 4.328125 -0.0625 C 3.554688 -0.0507812 2.773438 -0.0390625 1.984375 -0.03125 C 1.835938 -0.0390625 1.664062 -0.0507812 1.46875 -0.0625 C 1.28125 -0.0703125 1.195312 -0.1875 1.21875 -0.40625 C 1.21875 -2.320312 1.21875 -4.238281 1.21875 -6.15625 C 1.21875 -8.082031 1.21875 -10.007812 1.21875 -11.9375 C 1.21875 -12.269531 1.21875 -12.597656 1.21875 -12.921875 C 1.21875 -13.253906 1.21875 -13.578125 1.21875 -13.890625 C 1.21875 -14.285156 1.210938 -14.671875 1.203125 -15.046875 C 1.191406 -15.429688 1.1875 -15.828125 1.1875 -16.234375 C 1.1875 -16.335938 1.210938 -16.40625 1.265625 -16.4375 C 1.273438 -16.488281 1.3125 -16.515625 1.375 -16.515625 C 1.445312 -16.523438 1.503906 -16.53125 1.546875 -16.53125 C 1.671875 -16.53125 1.800781 -16.535156 1.9375 -16.546875 C 2.070312 -16.554688 2.210938 -16.5625 2.359375 -16.5625 C 2.847656 -16.539062 3.34375 -16.53125 3.84375 -16.53125 C 4.34375 -16.53125 4.84375 -16.53125 5.34375 -16.53125 C 5.59375 -16.53125 5.84375 -16.53125 6.09375 -16.53125 C 6.351562 -16.53125 6.609375 -16.53125 6.859375 -16.53125 C 6.941406 -16.53125 7.019531 -16.53125 7.09375 -16.53125 C 7.175781 -16.53125 7.257812 -16.53125 7.34375 -16.53125 C 7.40625 -16.53125 7.472656 -16.523438 7.546875 -16.515625 C 7.617188 -16.515625 7.675781 -16.5 7.71875 -16.46875 C 7.769531 -16.4375 7.796875 -16.363281 7.796875 -16.25 C 7.804688 -16.0625 7.8125 -15.859375 7.8125 -15.640625 C 7.8125 -15.429688 7.8125 -15.222656 7.8125 -15.015625 C 7.8125 -14.929688 7.8125 -14.84375 7.8125 -14.75 C 7.8125 -14.664062 7.8125 -14.585938 7.8125 -14.515625 C 7.8125 -14.335938 7.757812 -14.238281 7.65625 -14.21875 C 7.476562 -14.21875 7.171875 -14.210938 6.734375 -14.203125 C 6.304688 -14.203125 5.84375 -14.203125 5.34375 -14.203125 C 4.84375 -14.203125 4.40625 -14.203125 4.03125 -14.203125 C 3.976562 -14.203125 3.925781 -14.203125 3.875 -14.203125 C 3.832031 -14.203125 3.785156 -14.1875 3.734375 -14.15625 C 3.597656 -14.101562 3.535156 -13.972656 3.546875 -13.765625 C 3.535156 -13.453125 3.53125 -13.070312 3.53125 -12.625 C 3.539062 -12.1875 3.546875 -11.816406 3.546875 -11.515625 C 3.546875 -11.210938 3.691406 -11.066406 3.984375 -11.078125 C 4.222656 -11.078125 4.515625 -11.078125 4.859375 -11.078125 C 5.210938 -11.078125 5.539062 -11.078125 5.84375 -11.078125 C 6.144531 -11.078125 6.359375 -11.078125 6.484375 -11.078125 C 6.546875 -11.078125 6.59375 -11.070312 6.625 -11.0625 C 6.675781 -11.03125 6.703125 -10.972656 6.703125 -10.890625 C 6.710938 -10.804688 6.71875 -10.742188 6.71875 -10.703125 C 6.71875 -10.460938 6.71875 -10.222656 6.71875 -9.984375 C 6.71875 -9.742188 6.710938 -9.515625 6.703125 -9.296875 C 6.703125 -9.203125 6.695312 -9.101562 6.6875 -9 C 6.675781 -8.894531 6.613281 -8.832031 6.5 -8.8125 C 6.195312 -8.769531 5.882812 -8.75 5.5625 -8.75 C 5.238281 -8.757812 4.914062 -8.765625 4.59375 -8.765625 C 4.519531 -8.765625 4.429688 -8.757812 4.328125 -8.75 C 4.222656 -8.75 4.128906 -8.75 4.046875 -8.75 C 3.972656 -8.75 3.894531 -8.734375 3.8125 -8.703125 C 3.726562 -8.679688 3.671875 -8.640625 3.640625 -8.578125 C 3.597656 -8.492188 3.578125 -8.398438 3.578125 -8.296875 C 3.578125 -8.203125 3.578125 -8.113281 3.578125 -8.03125 C 3.578125 -7.96875 3.578125 -7.898438 3.578125 -7.828125 C 3.578125 -7.753906 3.578125 -7.6875 3.578125 -7.625 C 3.578125 -6.8125 3.578125 -6 3.578125 -5.1875 C 3.585938 -4.382812 3.601562 -3.578125 3.625 -2.765625 C 3.625 -2.648438 3.644531 -2.570312 3.6875 -2.53125 C 3.75 -2.445312 3.863281 -2.394531 4.03125 -2.375 C 4.40625 -2.375 4.882812 -2.378906 5.46875 -2.390625 C 6.0625 -2.398438 6.566406 -2.40625 6.984375 -2.40625 C 7.191406 -2.40625 7.335938 -2.40625 7.421875 -2.40625 C 7.503906 -2.40625 7.601562 -2.394531 7.71875 -2.375 C 7.832031 -2.363281 7.890625 -2.28125 7.890625 -2.125 Z M 7.890625 -2.125 "/></g></g><g style="fill:#f7f5f2;fill-opacity:1;"><g transform="translate(175.138392, 129.839418)"><path style="stroke:none" d="M 8.078125 -1 C 8.085938 -0.632812 8.082031 -0.382812 8.0625 -0.25 C 8.039062 -0.113281 7.957031 -0.0390625 7.8125 -0.03125 C 7.664062 -0.03125 7.421875 -0.0195312 7.078125 0 C 6.859375 -0.0195312 6.644531 -0.0234375 6.4375 -0.015625 C 6.226562 -0.00390625 6.019531 -0.0078125 5.8125 -0.03125 C 5.65625 -0.0390625 5.578125 -0.113281 5.578125 -0.25 C 5.585938 -0.394531 5.585938 -0.523438 5.578125 -0.640625 C 5.578125 -1.910156 5.585938 -3.242188 5.609375 -4.640625 C 5.628906 -6.046875 5.640625 -7.40625 5.640625 -8.71875 C 5.640625 -9.320312 5.644531 -9.921875 5.65625 -10.515625 C 5.675781 -11.109375 5.6875 -11.707031 5.6875 -12.3125 C 5.675781 -12.507812 5.660156 -12.703125 5.640625 -12.890625 C 5.628906 -13.078125 5.597656 -13.269531 5.546875 -13.46875 C 5.472656 -13.863281 5.242188 -14.082031 4.859375 -14.125 C 4.410156 -14.207031 4.085938 -14.144531 3.890625 -13.9375 C 3.691406 -13.726562 3.585938 -13.410156 3.578125 -12.984375 C 3.554688 -12.472656 3.550781 -11.960938 3.5625 -11.453125 C 3.582031 -10.953125 3.59375 -10.453125 3.59375 -9.953125 C 3.59375 -9.546875 3.597656 -9.046875 3.609375 -8.453125 C 3.617188 -7.867188 3.625 -7.25 3.625 -6.59375 C 3.625 -5.945312 3.625 -5.320312 3.625 -4.71875 C 3.625 -4.113281 3.625 -3.59375 3.625 -3.15625 C 3.625 -2.71875 3.625 -2.425781 3.625 -2.28125 C 3.625 -2.03125 3.625 -1.773438 3.625 -1.515625 C 3.625 -1.265625 3.613281 -1.015625 3.59375 -0.765625 C 3.59375 -0.679688 3.59375 -0.597656 3.59375 -0.515625 C 3.59375 -0.441406 3.59375 -0.363281 3.59375 -0.28125 C 3.59375 -0.175781 3.570312 -0.0976562 3.53125 -0.046875 C 3.46875 0.00390625 3.398438 0.03125 3.328125 0.03125 C 3.253906 0.03125 3.175781 0.03125 3.09375 0.03125 C 2.851562 0.03125 2.609375 0.03125 2.359375 0.03125 C 2.117188 0.03125 1.878906 0.03125 1.640625 0.03125 C 1.546875 0.03125 1.445312 0.0195312 1.34375 0 C 1.238281 -0.03125 1.1875 -0.109375 1.1875 -0.234375 C 1.1875 -2.429688 1.1875 -4.617188 1.1875 -6.796875 C 1.1875 -8.984375 1.203125 -11.175781 1.234375 -13.375 C 1.253906 -13.570312 1.257812 -13.769531 1.25 -13.96875 C 1.238281 -14.164062 1.25 -14.363281 1.28125 -14.5625 C 1.425781 -15.164062 1.6875 -15.625 2.0625 -15.9375 C 2.4375 -16.257812 2.875 -16.472656 3.375 -16.578125 C 3.882812 -16.691406 4.421875 -16.742188 4.984375 -16.734375 C 5.296875 -16.710938 5.609375 -16.664062 5.921875 -16.59375 C 6.242188 -16.519531 6.554688 -16.429688 6.859375 -16.328125 C 7.253906 -16.160156 7.539062 -15.875 7.71875 -15.46875 C 7.894531 -15.070312 8 -14.671875 8.03125 -14.265625 C 8.070312 -12.054688 8.082031 -9.84375 8.0625 -7.625 C 8.050781 -5.414062 8.054688 -3.207031 8.078125 -1 Z M 8.078125 -1 "/></g></g><g style="fill:#f7f5f2;fill-opacity:1;"><g transform="translate(184.407086, 129.839418)"><path style="stroke:none" d="M 8.03125 -3.328125 C 8.03125 -3.128906 8.03125 -2.929688 8.03125 -2.734375 C 8.039062 -2.535156 8.023438 -2.335938 7.984375 -2.140625 C 7.835938 -1.523438 7.582031 -1.0625 7.21875 -0.75 C 6.851562 -0.4375 6.414062 -0.222656 5.90625 -0.109375 C 5.394531 -0.00390625 4.863281 0.0390625 4.3125 0.03125 C 3.976562 0.0078125 3.65625 -0.0351562 3.34375 -0.109375 C 3.039062 -0.179688 2.738281 -0.269531 2.4375 -0.375 C 2.019531 -0.539062 1.722656 -0.820312 1.546875 -1.21875 C 1.367188 -1.625 1.265625 -2.03125 1.234375 -2.4375 C 1.191406 -4.644531 1.175781 -6.847656 1.1875 -9.046875 C 1.207031 -11.253906 1.207031 -13.472656 1.1875 -15.703125 C 1.1875 -16.003906 1.191406 -16.222656 1.203125 -16.359375 C 1.210938 -16.503906 1.273438 -16.597656 1.390625 -16.640625 C 1.515625 -16.679688 1.742188 -16.691406 2.078125 -16.671875 C 2.316406 -16.671875 2.550781 -16.675781 2.78125 -16.6875 C 3.007812 -16.695312 3.242188 -16.691406 3.484375 -16.671875 C 3.617188 -16.660156 3.6875 -16.582031 3.6875 -16.4375 C 3.6875 -16.300781 3.6875 -16.175781 3.6875 -16.0625 C 3.6875 -14.769531 3.675781 -13.425781 3.65625 -12.03125 C 3.644531 -10.644531 3.632812 -9.296875 3.625 -7.984375 C 3.632812 -7.378906 3.628906 -6.78125 3.609375 -6.1875 C 3.585938 -5.59375 3.582031 -4.992188 3.59375 -4.390625 C 3.59375 -4.191406 3.601562 -3.992188 3.625 -3.796875 C 3.65625 -3.597656 3.6875 -3.410156 3.71875 -3.234375 C 3.8125 -2.835938 4.039062 -2.609375 4.40625 -2.546875 C 4.851562 -2.484375 5.175781 -2.554688 5.375 -2.765625 C 5.582031 -2.972656 5.6875 -3.289062 5.6875 -3.71875 C 5.707031 -4.226562 5.707031 -4.734375 5.6875 -5.234375 C 5.675781 -5.734375 5.671875 -6.238281 5.671875 -6.75 C 5.671875 -7.15625 5.671875 -7.648438 5.671875 -8.234375 C 5.671875 -8.828125 5.671875 -9.445312 5.671875 -10.09375 C 5.671875 -10.75 5.671875 -11.378906 5.671875 -11.984375 C 5.671875 -12.585938 5.671875 -13.101562 5.671875 -13.53125 C 5.671875 -13.957031 5.671875 -14.242188 5.671875 -14.390625 C 5.671875 -14.660156 5.671875 -14.921875 5.671875 -15.171875 C 5.671875 -15.429688 5.671875 -15.6875 5.671875 -15.9375 C 5.671875 -16.019531 5.671875 -16.097656 5.671875 -16.171875 C 5.671875 -16.253906 5.671875 -16.328125 5.671875 -16.390625 C 5.679688 -16.515625 5.710938 -16.601562 5.765625 -16.65625 C 5.816406 -16.707031 5.878906 -16.734375 5.953125 -16.734375 C 6.035156 -16.734375 6.109375 -16.734375 6.171875 -16.734375 C 6.410156 -16.734375 6.648438 -16.734375 6.890625 -16.734375 C 7.140625 -16.734375 7.382812 -16.722656 7.625 -16.703125 C 7.738281 -16.703125 7.84375 -16.691406 7.9375 -16.671875 C 8.03125 -16.660156 8.078125 -16.59375 8.078125 -16.46875 C 8.078125 -14.269531 8.078125 -12.070312 8.078125 -9.875 C 8.078125 -7.6875 8.0625 -5.503906 8.03125 -3.328125 Z M 8.03125 -3.328125 "/></g></g><g style="fill:#f7f5f2;fill-opacity:1;"><g transform="translate(193.67578, 129.839418)"><path style="stroke:none" d="M 7.890625 -2.125 C 7.898438 -2.039062 7.898438 -1.957031 7.890625 -1.875 C 7.890625 -1.800781 7.890625 -1.722656 7.890625 -1.640625 C 7.867188 -1.210938 7.863281 -0.890625 7.875 -0.671875 C 7.894531 -0.460938 7.878906 -0.3125 7.828125 -0.21875 C 7.785156 -0.132812 7.679688 -0.0859375 7.515625 -0.078125 C 7.347656 -0.078125 7.078125 -0.078125 6.703125 -0.078125 C 5.898438 -0.078125 5.109375 -0.0703125 4.328125 -0.0625 C 3.554688 -0.0507812 2.773438 -0.0390625 1.984375 -0.03125 C 1.835938 -0.0390625 1.664062 -0.0507812 1.46875 -0.0625 C 1.28125 -0.0703125 1.195312 -0.1875 1.21875 -0.40625 C 1.21875 -2.320312 1.21875 -4.238281 1.21875 -6.15625 C 1.21875 -8.082031 1.21875 -10.007812 1.21875 -11.9375 C 1.21875 -12.269531 1.21875 -12.597656 1.21875 -12.921875 C 1.21875 -13.253906 1.21875 -13.578125 1.21875 -13.890625 C 1.21875 -14.285156 1.210938 -14.671875 1.203125 -15.046875 C 1.191406 -15.429688 1.1875 -15.828125 1.1875 -16.234375 C 1.1875 -16.335938 1.210938 -16.40625 1.265625 -16.4375 C 1.273438 -16.488281 1.3125 -16.515625 1.375 -16.515625 C 1.445312 -16.523438 1.503906 -16.53125 1.546875 -16.53125 C 1.671875 -16.53125 1.800781 -16.535156 1.9375 -16.546875 C 2.070312 -16.554688 2.210938 -16.5625 2.359375 -16.5625 C 2.847656 -16.539062 3.34375 -16.53125 3.84375 -16.53125 C 4.34375 -16.53125 4.84375 -16.53125 5.34375 -16.53125 C 5.59375 -16.53125 5.84375 -16.53125 6.09375 -16.53125 C 6.351562 -16.53125 6.609375 -16.53125 6.859375 -16.53125 C 6.941406 -16.53125 7.019531 -16.53125 7.09375 -16.53125 C 7.175781 -16.53125 7.257812 -16.53125 7.34375 -16.53125 C 7.40625 -16.53125 7.472656 -16.523438 7.546875 -16.515625 C 7.617188 -16.515625 7.675781 -16.5 7.71875 -16.46875 C 7.769531 -16.4375 7.796875 -16.363281 7.796875 -16.25 C 7.804688 -16.0625 7.8125 -15.859375 7.8125 -15.640625 C 7.8125 -15.429688 7.8125 -15.222656 7.8125 -15.015625 C 7.8125 -14.929688 7.8125 -14.84375 7.8125 -14.75 C 7.8125 -14.664062 7.8125 -14.585938 7.8125 -14.515625 C 7.8125 -14.335938 7.757812 -14.238281 7.65625 -14.21875 C 7.476562 -14.21875 7.171875 -14.210938 6.734375 -14.203125 C 6.304688 -14.203125 5.84375 -14.203125 5.34375 -14.203125 C 4.84375 -14.203125 4.40625 -14.203125 4.03125 -14.203125 C 3.976562 -14.203125 3.925781 -14.203125 3.875 -14.203125 C 3.832031 -14.203125 3.785156 -14.1875 3.734375 -14.15625 C 3.597656 -14.101562 3.535156 -13.972656 3.546875 -13.765625 C 3.535156 -13.453125 3.53125 -13.070312 3.53125 -12.625 C 3.539062 -12.1875 3.546875 -11.816406 3.546875 -11.515625 C 3.546875 -11.210938 3.691406 -11.066406 3.984375 -11.078125 C 4.222656 -11.078125 4.515625 -11.078125 4.859375 -11.078125 C 5.210938 -11.078125 5.539062 -11.078125 5.84375 -11.078125 C 6.144531 -11.078125 6.359375 -11.078125 6.484375 -11.078125 C 6.546875 -11.078125 6.59375 -11.070312 6.625 -11.0625 C 6.675781 -11.03125 6.703125 -10.972656 6.703125 -10.890625 C 6.710938 -10.804688 6.71875 -10.742188 6.71875 -10.703125 C 6.71875 -10.460938 6.71875 -10.222656 6.71875 -9.984375 C 6.71875 -9.742188 6.710938 -9.515625 6.703125 -9.296875 C 6.703125 -9.203125 6.695312 -9.101562 6.6875 -9 C 6.675781 -8.894531 6.613281 -8.832031 6.5 -8.8125 C 6.195312 -8.769531 5.882812 -8.75 5.5625 -8.75 C 5.238281 -8.757812 4.914062 -8.765625 4.59375 -8.765625 C 4.519531 -8.765625 4.429688 -8.757812 4.328125 -8.75 C 4.222656 -8.75 4.128906 -8.75 4.046875 -8.75 C 3.972656 -8.75 3.894531 -8.734375 3.8125 -8.703125 C 3.726562 -8.679688 3.671875 -8.640625 3.640625 -8.578125 C 3.597656 -8.492188 3.578125 -8.398438 3.578125 -8.296875 C 3.578125 -8.203125 3.578125 -8.113281 3.578125 -8.03125 C 3.578125 -7.96875 3.578125 -7.898438 3.578125 -7.828125 C 3.578125 -7.753906 3.578125 -7.6875 3.578125 -7.625 C 3.578125 -6.8125 3.578125 -6 3.578125 -5.1875 C 3.585938 -4.382812 3.601562 -3.578125 3.625 -2.765625 C 3.625 -2.648438 3.644531 -2.570312 3.6875 -2.53125 C 3.75 -2.445312 3.863281 -2.394531 4.03125 -2.375 C 4.40625 -2.375 4.882812 -2.378906 5.46875 -2.390625 C 6.0625 -2.398438 6.566406 -2.40625 6.984375 -2.40625 C 7.191406 -2.40625 7.335938 -2.40625 7.421875 -2.40625 C 7.503906 -2.40625 7.601562 -2.394531 7.71875 -2.375 C 7.832031 -2.363281 7.890625 -2.28125 7.890625 -2.125 Z M 7.890625 -2.125 "/></g></g><g style="fill:#f7f5f2;fill-opacity:1;"><g transform="translate(38.874723, 101.988225)"><path style="stroke:none" d="M 174.75 -45.28125 C 175.320312 -45.164062 175.773438 -44.925781 176.109375 -44.5625 C 176.453125 -44.207031 176.523438 -43.863281 176.328125 -43.53125 C 176.117188 -43.21875 175.878906 -43.023438 175.609375 -42.953125 C 175.347656 -42.878906 175.0625 -42.867188 174.75 -42.921875 C 174.363281 -42.921875 173.96875 -42.941406 173.5625 -42.984375 C 167.863281 -43.148438 160.3125 -42.820312 150.90625 -42 C 141.5 -41.175781 133.921875 -40.367188 128.171875 -39.578125 C 123.734375 -38.992188 119.300781 -38.367188 114.875 -37.703125 C 114.78125 -37.703125 114.644531 -37.664062 114.46875 -37.59375 C 112.625 -37.332031 110.9375 -36.648438 109.40625 -35.546875 C 103.78125 -31.710938 97.957031 -28.238281 91.9375 -25.125 C 85.925781 -22.007812 79.789062 -19.109375 73.53125 -16.421875 C 63.394531 -11.941406 53.035156 -8.035156 42.453125 -4.703125 C 40.296875 -4.128906 38.710938 -2.8125 37.703125 -0.75 C 33.003906 8.613281 28.101562 17.773438 23 26.734375 C 18.46875 34.710938 14.117188 42.789062 9.953125 50.96875 C 9.953125 51.007812 9.929688 51.054688 9.890625 51.109375 C 9.710938 51.535156 9.492188 51.882812 9.234375 52.15625 C 8.804688 52.507812 8.304688 52.640625 7.734375 52.546875 C 7.421875 52.640625 7.109375 52.640625 6.796875 52.546875 C 6.148438 52.285156 5.828125 51.804688 5.828125 51.109375 C 5.898438 49.960938 6.269531 48.882812 6.9375 47.875 C 6.988281 47.820312 7.015625 47.757812 7.015625 47.6875 C 11.222656 40.125 15.367188 32.554688 19.453125 24.984375 C 23.546875 17.410156 27.5 9.726562 31.3125 1.9375 C 31.613281 1.289062 31.921875 0.632812 32.234375 -0.03125 C 32.359375 -0.375 32.492188 -0.722656 32.640625 -1.078125 C 32.273438 -1.171875 31.9375 -1.253906 31.625 -1.328125 C 31.03125 -1.210938 30.445312 -1.046875 29.875 -0.828125 C 29.65625 -0.773438 29.445312 -0.703125 29.25 -0.609375 C 21.875 1.492188 14.410156 3.289062 6.859375 4.78125 C 1.640625 5.71875 -3.601562 6.375 -8.875 6.75 C -9.132812 6.800781 -9.375 6.828125 -9.59375 6.828125 C -10.125 6.878906 -10.648438 6.90625 -11.171875 6.90625 C -13.210938 6.90625 -15.191406 6.59375 -17.109375 5.96875 C -18.566406 5.4375 -19.4375 4.601562 -19.71875 3.46875 C -20.007812 2.332031 -19.664062 1.101562 -18.6875 -0.21875 C -17.375 -1.75 -15.816406 -3.003906 -14.015625 -3.984375 C -9.941406 -6.523438 -5.664062 -8.613281 -1.1875 -10.25 C 10.769531 -14.769531 22.894531 -18.742188 35.1875 -22.171875 C 35.851562 -22.390625 36.5625 -22.582031 37.3125 -22.75 C 38.894531 -23.0625 40.367188 -23.519531 41.734375 -24.125 C 43.097656 -24.738281 44.125 -25.800781 44.8125 -27.3125 C 47.40625 -33.28125 49.898438 -39.253906 52.296875 -45.234375 C 54.691406 -51.210938 56.921875 -57.289062 58.984375 -63.46875 C 58.984375 -63.519531 59.003906 -63.59375 59.046875 -63.6875 C 59.359375 -64.8125 59.78125 -65.867188 60.3125 -66.859375 C 60.53125 -67.191406 60.8125 -67.421875 61.15625 -67.546875 C 61.5 -67.679688 61.851562 -67.710938 62.21875 -67.640625 C 62.476562 -67.710938 62.765625 -67.710938 63.078125 -67.640625 C 63.867188 -67.453125 64.320312 -66.925781 64.4375 -66.0625 C 64.4375 -64.4375 64.140625 -62.851562 63.546875 -61.3125 C 63.546875 -61.269531 63.519531 -61.195312 63.46875 -61.09375 C 60.882812 -53.1875 57.988281 -45.414062 54.78125 -37.78125 C 53.9375 -35.664062 53.070312 -33.578125 52.1875 -31.515625 C 51.851562 -30.773438 51.53125 -30.007812 51.21875 -29.21875 C 50.8125 -28.28125 50.644531 -27.640625 50.71875 -27.296875 C 50.789062 -26.953125 51.035156 -26.789062 51.453125 -26.8125 C 51.867188 -26.832031 52.378906 -26.953125 52.984375 -27.171875 C 53.171875 -27.222656 53.375 -27.269531 53.59375 -27.3125 C 55.914062 -27.914062 58.238281 -28.503906 60.5625 -29.078125 C 64.78125 -30.128906 69.019531 -31.179688 73.28125 -32.234375 C 83.726562 -34.703125 94.25 -36.8125 104.84375 -38.5625 C 106.738281 -38.875 108.390625 -39.609375 109.796875 -40.765625 C 112.816406 -43.035156 115.800781 -45.707031 118.75 -48.78125 C 121.695312 -51.863281 124.132812 -55.179688 126.0625 -58.734375 C 127.988281 -62.296875 128.859375 -65.953125 128.671875 -69.703125 C 128.484375 -73.453125 126.757812 -77.175781 123.5 -80.875 C 121.382812 -83.070312 118.988281 -84.914062 116.3125 -86.40625 C 110.65625 -89.445312 103.859375 -91.679688 95.921875 -93.109375 C 87.992188 -94.535156 79.492188 -95.289062 70.421875 -95.375 C 61.359375 -95.457031 52.28125 -94.992188 43.1875 -93.984375 C 34.09375 -92.984375 25.578125 -91.585938 17.640625 -89.796875 C 9.710938 -88.015625 2.910156 -85.984375 -2.765625 -83.703125 C -7.679688 -81.765625 -12.351562 -79.367188 -16.78125 -76.515625 C -18.582031 -75.421875 -20.269531 -74.210938 -21.84375 -72.890625 C -23.425781 -71.566406 -24.84375 -70.054688 -26.09375 -68.359375 C -26.570312 -67.617188 -27.207031 -67.222656 -28 -67.171875 C -28.164062 -67.171875 -28.359375 -67.171875 -28.578125 -67.171875 C -28.617188 -67.171875 -28.664062 -67.171875 -28.71875 -67.171875 C -29.03125 -67.171875 -29.328125 -67.210938 -29.609375 -67.296875 C -29.898438 -67.378906 -30.128906 -67.554688 -30.296875 -67.828125 C -30.390625 -68.035156 -30.4375 -68.253906 -30.4375 -68.484375 C -30.4375 -68.710938 -30.414062 -68.910156 -30.375 -69.078125 C -29.96875 -70.035156 -29.414062 -70.878906 -28.71875 -71.609375 C -28.019531 -72.335938 -27.3125 -73.050781 -26.59375 -73.75 C -24.675781 -75.382812 -22.679688 -76.859375 -20.609375 -78.171875 C -18.535156 -79.492188 -16.410156 -80.726562 -14.234375 -81.875 C -8.648438 -84.84375 -1.507812 -87.515625 7.1875 -89.890625 C 15.882812 -92.265625 25.4375 -94.175781 35.84375 -95.625 C 46.257812 -97.070312 56.75 -97.859375 67.3125 -97.984375 C 77.882812 -98.117188 87.78125 -97.421875 97 -95.890625 C 106.226562 -94.359375 114.085938 -91.796875 120.578125 -88.203125 C 123.484375 -86.617188 126.085938 -84.59375 128.390625 -82.125 C 131.617188 -78.488281 133.453125 -74.890625 133.890625 -71.328125 C 134.335938 -67.765625 133.847656 -64.3125 132.421875 -60.96875 C 131.003906 -57.632812 129.039062 -54.453125 126.53125 -51.421875 C 124.03125 -48.390625 121.460938 -45.554688 118.828125 -42.921875 C 118.515625 -42.648438 118.203125 -42.316406 117.890625 -41.921875 C 117.578125 -41.523438 117.441406 -41.195312 117.484375 -40.9375 C 117.535156 -40.675781 117.9375 -40.59375 118.6875 -40.6875 C 127.519531 -42.125 136.335938 -43.207031 145.140625 -43.9375 C 153.953125 -44.664062 162.816406 -45.164062 171.734375 -45.4375 C 171.992188 -45.4375 172.234375 -45.4375 172.453125 -45.4375 L 172.515625 -45.4375 C 173.265625 -45.4375 174.007812 -45.382812 174.75 -45.28125 Z M 35.578125 -6.9375 C 35.773438 -7.414062 36.132812 -8.097656 36.65625 -8.984375 C 37.40625 -10.398438 38.1875 -11.960938 39 -13.671875 C 39.8125 -15.390625 40.398438 -16.894531 40.765625 -18.1875 C 41.140625 -19.476562 40.957031 -20.1875 40.21875 -20.3125 C 39.757812 -20.238281 39.316406 -20.128906 38.890625 -19.984375 C 38.796875 -19.984375 38.664062 -19.957031 38.5 -19.90625 C 36.820312 -19.382812 35.128906 -18.882812 33.421875 -18.40625 C 29.378906 -17.226562 25.316406 -15.984375 21.234375 -14.671875 C 21.046875 -14.617188 20.84375 -14.546875 20.625 -14.453125 C 13.34375 -12.222656 6.164062 -9.65625 -0.90625 -6.75 C -4.46875 -5.289062 -7.851562 -3.507812 -11.0625 -1.40625 C -12.289062 -0.707031 -13.300781 0.210938 -14.09375 1.359375 C -14.40625 1.835938 -14.492188 2.273438 -14.359375 2.671875 C -14.222656 3.066406 -13.894531 3.375 -13.375 3.59375 C -12.269531 3.957031 -11.140625 4.140625 -9.984375 4.140625 C -8.984375 4.140625 -7.976562 4.085938 -6.96875 3.984375 C -6.925781 3.984375 -6.90625 3.984375 -6.90625 3.984375 C -1.675781 3.460938 3.460938 2.613281 8.515625 1.4375 C 16.546875 -0.332031 24.476562 -2.40625 32.3125 -4.78125 C 32.425781 -4.851562 32.507812 -4.890625 32.5625 -4.890625 C 33.1875 -5.035156 33.757812 -5.25 34.28125 -5.53125 C 34.8125 -5.820312 35.242188 -6.289062 35.578125 -6.9375 Z M 42.296875 -8.34375 C 47.046875 -9.5625 53.503906 -11.84375 61.671875 -15.1875 C 69.847656 -18.53125 77.703125 -22.0625 85.234375 -25.78125 C 92.773438 -29.507812 97.910156 -32.582031 100.640625 -35 C 100.273438 -35 99.960938 -35 99.703125 -35 C 99.585938 -35 99.503906 -35 99.453125 -35 C 82.890625 -31.71875 66.5 -27.816406 50.28125 -23.296875 C 48.84375 -22.878906 47.859375 -22.015625 47.328125 -20.703125 C 46.347656 -18.597656 45.378906 -16.515625 44.421875 -14.453125 C 43.679688 -12.910156 42.941406 -11.351562 42.203125 -9.78125 C 42.097656 -9.5625 42.035156 -9.316406 42.015625 -9.046875 C 41.992188 -8.785156 42.085938 -8.550781 42.296875 -8.34375 Z M 42.296875 -8.34375 "/></g><g transform="translate(139.647278, 101.988225)"><path style="stroke:none" d="M 20.484375 -13.796875 C 19.097656 -12.429688 17.484375 -11.265625 15.640625 -10.296875 C 13.796875 -9.328125 12.25 -8.691406 11 -8.390625 C 9.75 -8.085938 8.46875 -7.914062 7.15625 -7.875 C 5.039062 -7.78125 3.097656 -8.066406 1.328125 -8.734375 C -1.566406 -9.910156 -2.570312 -12.148438 -1.6875 -15.453125 C -0.851562 -18.304688 0.84375 -20.535156 3.40625 -22.140625 C 5.976562 -23.742188 8.628906 -24.519531 11.359375 -24.46875 C 11.359375 -24.46875 11.378906 -24.46875 11.421875 -24.46875 C 12.117188 -24.519531 12.78125 -24.472656 13.40625 -24.328125 C 14.457031 -23.941406 15.125 -23.316406 15.40625 -22.453125 C 15.695312 -21.597656 15.507812 -20.644531 14.84375 -19.59375 C 13.3125 -17.269531 11.226562 -15.972656 8.59375 -15.703125 C 6.84375 -15.535156 5.148438 -15.617188 3.515625 -15.953125 C 3.210938 -16.003906 2.941406 -15.921875 2.703125 -15.703125 C 2.460938 -15.492188 2.316406 -15.234375 2.265625 -14.921875 C 1.785156 -12.859375 2.421875 -11.539062 4.171875 -10.96875 C 6.328125 -10.21875 8.566406 -10.21875 10.890625 -10.96875 C 13.578125 -11.800781 16.128906 -13.378906 18.546875 -15.703125 C 20.960938 -18.023438 22.359375 -19.109375 22.734375 -18.953125 C 23.109375 -18.796875 23.222656 -18.347656 23.078125 -17.609375 C 22.742188 -16.429688 21.878906 -15.160156 20.484375 -13.796875 Z M 5.171875 -19.59375 C 5.023438 -19.425781 4.921875 -19.238281 4.859375 -19.03125 C 4.804688 -18.820312 4.890625 -18.632812 5.109375 -18.46875 C 5.941406 -17.988281 6.847656 -17.816406 7.828125 -17.953125 C 8.816406 -18.085938 9.648438 -18.457031 10.328125 -19.0625 C 11.015625 -19.675781 11.3125 -20.425781 11.21875 -21.3125 C 11.144531 -21.625 10.972656 -21.820312 10.703125 -21.90625 C 10.441406 -21.988281 10.179688 -22.003906 9.921875 -21.953125 C 8.148438 -21.648438 6.566406 -20.863281 5.171875 -19.59375 Z M 5.171875 -19.59375 "/></g><g transform="translate(160.563692, 101.988225)"><path style="stroke:none" d="M 28.46875 -17.9375 C 28.851562 -17.457031 28.375 -16.582031 27.03125 -15.3125 C 25.6875 -14.039062 24.257812 -12.972656 22.75 -12.109375 C 21.238281 -11.242188 19.488281 -10.382812 17.5 -9.53125 C 16.1875 -8.945312 14.785156 -8.75 13.296875 -8.9375 C 11.804688 -9.132812 11.0625 -10.035156 11.0625 -11.640625 C 11.0625 -13.242188 11.4375 -14.835938 12.1875 -16.421875 C 12.925781 -18.054688 13.085938 -18.894531 12.671875 -18.9375 C 12.253906 -18.988281 11.382812 -18.59375 10.0625 -17.75 C 6.632812 -15.5 3.445312 -12.925781 0.5 -10.03125 C -0.289062 -9.070312 -1.296875 -8.546875 -2.515625 -8.453125 C -3.140625 -8.453125 -3.625 -8.644531 -3.96875 -9.03125 C -4.320312 -9.425781 -4.363281 -9.851562 -4.09375 -10.3125 C -1.988281 -14.21875 0.140625 -18.078125 2.296875 -21.890625 C 2.773438 -22.679688 3.492188 -23.171875 4.453125 -23.359375 C 4.859375 -23.429688 5.234375 -23.304688 5.578125 -22.984375 C 5.929688 -22.660156 6.109375 -22.296875 6.109375 -21.890625 C 6.054688 -21.503906 5.898438 -21.046875 5.640625 -20.515625 C 5.523438 -20.210938 5.410156 -19.914062 5.296875 -19.625 C 5.191406 -19.332031 5.15625 -19.09375 5.1875 -18.90625 C 5.226562 -18.71875 5.378906 -18.65625 5.640625 -18.71875 C 6.003906 -18.914062 6.363281 -19.125 6.71875 -19.34375 C 7.632812 -19.863281 8.507812 -20.363281 9.34375 -20.84375 C 10.082031 -21.28125 10.859375 -21.664062 11.671875 -22 C 12.492188 -22.332031 13.347656 -22.554688 14.234375 -22.671875 C 15.671875 -22.773438 16.6875 -22.453125 17.28125 -21.703125 C 17.882812 -20.960938 17.957031 -19.9375 17.5 -18.625 C 17.019531 -17.425781 16.519531 -16.238281 16 -15.0625 C 15.351562 -13.957031 15.242188 -13.117188 15.671875 -12.546875 C 16.097656 -11.972656 18.097656 -12.628906 21.671875 -14.515625 L 24.375 -16.109375 C 26.90625 -17.734375 28.269531 -18.34375 28.46875 -17.9375 Z M 28.46875 -17.9375 "/></g></g><g style="fill:#f7f5f2;fill-opacity:1;"><g transform="translate(186.90687, 101.988225)"><path style="stroke:none" d="M 20.484375 -13.796875 C 19.097656 -12.429688 17.484375 -11.265625 15.640625 -10.296875 C 13.796875 -9.328125 12.25 -8.691406 11 -8.390625 C 9.75 -8.085938 8.46875 -7.914062 7.15625 -7.875 C 5.039062 -7.78125 3.097656 -8.066406 1.328125 -8.734375 C -1.566406 -9.910156 -2.570312 -12.148438 -1.6875 -15.453125 C -0.851562 -18.304688 0.84375 -20.535156 3.40625 -22.140625 C 5.976562 -23.742188 8.628906 -24.519531 11.359375 -24.46875 C 11.359375 -24.46875 11.378906 -24.46875 11.421875 -24.46875 C 12.117188 -24.519531 12.78125 -24.472656 13.40625 -24.328125 C 14.457031 -23.941406 15.125 -23.316406 15.40625 -22.453125 C 15.695312 -21.597656 15.507812 -20.644531 14.84375 -19.59375 C 13.3125 -17.269531 11.226562 -15.972656 8.59375 -15.703125 C 6.84375 -15.535156 5.148438 -15.617188 3.515625 -15.953125 C 3.210938 -16.003906 2.941406 -15.921875 2.703125 -15.703125 C 2.460938 -15.492188 2.316406 -15.234375 2.265625 -14.921875 C 1.785156 -12.859375 2.421875 -11.539062 4.171875 -10.96875 C 6.328125 -10.21875 8.566406 -10.21875 10.890625 -10.96875 C 13.578125 -11.800781 16.128906 -13.378906 18.546875 -15.703125 C 20.960938 -18.023438 22.359375 -19.109375 22.734375 -18.953125 C 23.109375 -18.796875 23.222656 -18.347656 23.078125 -17.609375 C 22.742188 -16.429688 21.878906 -15.160156 20.484375 -13.796875 Z M 5.171875 -19.59375 C 5.023438 -19.425781 4.921875 -19.238281 4.859375 -19.03125 C 4.804688 -18.820312 4.890625 -18.632812 5.109375 -18.46875 C 5.941406 -17.988281 6.847656 -17.816406 7.828125 -17.953125 C 8.816406 -18.085938 9.648438 -18.457031 10.328125 -19.0625 C 11.015625 -19.675781 11.3125 -20.425781 11.21875 -21.3125 C 11.144531 -21.625 10.972656 -21.820312 10.703125 -21.90625 C 10.441406 -21.988281 10.179688 -22.003906 9.921875 -21.953125 C 8.148438 -21.648438 6.566406 -20.863281 5.171875 -19.59375 Z M 12.796875 -33.109375 C 12.941406 -33.367188 13.175781 -33.539062 13.5 -33.625 C 13.820312 -33.707031 14.140625 -33.75 14.453125 -33.75 C 14.546875 -33.675781 14.617188 -33.640625 14.671875 -33.640625 C 14.785156 -33.640625 14.914062 -33.613281 15.0625 -33.5625 C 15.851562 -33.425781 16.289062 -33.195312 16.375 -32.875 C 16.457031 -32.550781 16.363281 -32.203125 16.09375 -31.828125 C 15.832031 -31.453125 15.546875 -31.109375 15.234375 -30.796875 C 14.441406 -29.960938 13.675781 -29.019531 12.9375 -27.96875 C 12.3125 -27.082031 11.75 -26.375 11.25 -25.84375 C 10.75 -25.3125 10.363281 -25.226562 10.09375 -25.59375 C 9.832031 -25.8125 9.6875 -26.0625 9.65625 -26.34375 C 9.632812 -26.632812 9.675781 -26.9375 9.78125 -27.25 C 9.988281 -28.207031 10.328125 -29.101562 10.796875 -29.9375 C 11.265625 -30.78125 11.765625 -31.597656 12.296875 -32.390625 C 12.460938 -32.597656 12.628906 -32.835938 12.796875 -33.109375 Z M 12.796875 -33.109375 "/></g></g><g style="fill:#f7f5f2;fill-opacity:1;"><g transform="translate(207.823298, 101.988225)"><path style="stroke:none" d="M 17.390625 -17.140625 C 18.179688 -17.929688 18.835938 -18.375 19.359375 -18.46875 C 19.890625 -18.570312 20.234375 -18.488281 20.390625 -18.21875 C 20.546875 -17.957031 20.445312 -17.597656 20.09375 -17.140625 C 17.976562 -14.597656 15.613281 -12.40625 13 -10.5625 C 10.394531 -8.71875 7.707031 -7.648438 4.9375 -7.359375 C 2.175781 -7.078125 0.503906 -8.585938 -0.078125 -11.890625 C -0.503906 -15.179688 1.484375 -21.867188 5.890625 -31.953125 C 10.304688 -42.035156 13.796875 -50.300781 16.359375 -56.75 C 16.566406 -57.320312 16.890625 -57.828125 17.328125 -58.265625 C 17.898438 -58.835938 18.582031 -58.96875 19.375 -58.65625 C 19.632812 -58.539062 19.894531 -58.347656 20.15625 -58.078125 C 20.425781 -57.816406 20.515625 -57.351562 20.421875 -56.6875 C 9.085938 -29.800781 3.597656 -15.179688 3.953125 -12.828125 C 4.316406 -10.484375 5.832031 -9.90625 8.5 -11.09375 C 11.175781 -12.28125 13.238281 -13.488281 14.6875 -14.71875 C 16.132812 -15.945312 17.035156 -16.753906 17.390625 -17.140625 Z M 17.390625 -17.140625 "/></g></g><g style="fill:#f7f5f2;fill-opacity:1;"><g transform="translate(225.756776, 101.988225)"><path style="stroke:none" d="M 5.71875 -8.515625 L 5.609375 -8.515625 C 2.128906 -8.566406 -0.15625 -9.335938 -1.25 -10.828125 C -2.351562 -12.328125 -2.304688 -14.328125 -1.109375 -16.828125 C -0.109375 -18.710938 1.160156 -20.363281 2.703125 -21.78125 C 3.222656 -22.257812 3.757812 -22.640625 4.3125 -22.921875 C 4.863281 -23.210938 5.488281 -23.359375 6.1875 -23.359375 C 6.59375 -23.429688 7.054688 -23.359375 7.578125 -23.140625 C 7.742188 -23.097656 7.914062 -23.039062 8.09375 -22.96875 C 8.5 -23.039062 8.890625 -23.171875 9.265625 -23.359375 C 9.367188 -23.429688 9.503906 -23.492188 9.671875 -23.546875 C 10.460938 -23.859375 11.300781 -23.988281 12.1875 -23.9375 C 12.539062 -23.9375 12.910156 -23.9375 13.296875 -23.9375 C 14.710938 -23.71875 15.78125 -23.125 16.5 -22.15625 C 17.21875 -21.1875 17.46875 -20.007812 17.25 -18.625 C 17.132812 -17.78125 16.875 -16.988281 16.46875 -16.25 C 13.707031 -11.3125 10.195312 -8.734375 5.9375 -8.515625 Z M 11.390625 -21.390625 C 9.492188 -21.460938 7.8125 -20.914062 6.34375 -19.75 C 4.875 -18.582031 3.78125 -17.242188 3.0625 -15.734375 C 2.34375 -14.234375 2.144531 -12.992188 2.46875 -12.015625 C 2.789062 -11.046875 3.789062 -10.78125 5.46875 -11.21875 C 7.351562 -11.789062 9.019531 -12.867188 10.46875 -14.453125 C 11.925781 -16.035156 12.816406 -17.535156 13.140625 -18.953125 C 13.460938 -20.378906 12.878906 -21.191406 11.390625 -21.390625 Z M 11.390625 -21.390625 "/></g></g><g style="fill:#f7f5f2;fill-opacity:1;"><g transform="translate(244.840321, 101.988225)"><path style="stroke:none" d="M 28.609375 -18.875 C 28.078125 -18.65625 27.523438 -18.472656 26.953125 -18.328125 C 26.804688 -18.253906 26.675781 -18.195312 26.5625 -18.15625 C 25.988281 -17.9375 25.414062 -17.734375 24.84375 -17.546875 C 23.207031 -17.015625 21.539062 -16.445312 19.84375 -15.84375 C 18.570312 -15.488281 17.578125 -14.703125 16.859375 -13.484375 C 15.679688 -11.585938 14.210938 -10.109375 12.453125 -9.046875 C 10.691406 -7.992188 8.898438 -7.242188 7.078125 -6.796875 C 5.253906 -6.359375 3.640625 -6.085938 2.234375 -5.984375 C 0.835938 -5.878906 -0.0625 -5.847656 -0.46875 -5.890625 C -0.519531 -5.890625 -0.578125 -5.890625 -0.640625 -5.890625 C -1.222656 -5.535156 -1.800781 -4.828125 -2.375 -3.765625 C -2.945312 -2.710938 -3.445312 -1.769531 -3.875 -0.9375 C -3.976562 -0.71875 -4.050781 -0.523438 -4.09375 -0.359375 C -6.46875 4.378906 -8.816406 9.125 -11.140625 13.875 C -12.460938 16.507812 -13.78125 19.144531 -15.09375 21.78125 C -15.53125 22.71875 -16.035156 23.613281 -16.609375 24.46875 C -17.128906 25.144531 -17.785156 25.28125 -18.578125 24.875 C -19.109375 24.488281 -19.242188 23.960938 -18.984375 23.296875 C -18.710938 22.597656 -18.421875 21.898438 -18.109375 21.203125 C -13.992188 11.453125 -9.625 1.804688 -5 -7.734375 C -3.5625 -10.671875 -2.207031 -13.675781 -0.9375 -16.75 C -0.363281 -18.164062 0.234375 -19.613281 0.859375 -21.09375 C 0.910156 -21.238281 0.992188 -21.394531 1.109375 -21.5625 C 1.421875 -22.351562 1.796875 -23.117188 2.234375 -23.859375 C 2.421875 -24.128906 2.773438 -24.296875 3.296875 -24.359375 C 3.828125 -24.429688 4.285156 -24.363281 4.671875 -24.15625 C 5.148438 -23.84375 5.390625 -23.375 5.390625 -22.75 C 5.390625 -22.4375 5.332031 -22.113281 5.21875 -21.78125 C 5.113281 -21.519531 5.050781 -21.253906 5.03125 -20.984375 C 5.007812 -20.722656 5.09375 -20.460938 5.28125 -20.203125 C 5.664062 -20.148438 6 -20.203125 6.28125 -20.359375 C 6.570312 -20.515625 6.847656 -20.703125 7.109375 -20.921875 C 7.378906 -21.128906 7.691406 -21.285156 8.046875 -21.390625 C 8.265625 -21.503906 8.484375 -21.609375 8.703125 -21.703125 C 9.847656 -22.234375 10.984375 -22.691406 12.109375 -23.078125 C 13.578125 -23.523438 15.03125 -23.414062 16.46875 -22.75 C 17.082031 -22.363281 17.546875 -21.894531 17.859375 -21.34375 C 18.171875 -20.789062 18.410156 -20.207031 18.578125 -19.59375 C 18.742188 -19.113281 19.179688 -18.859375 19.890625 -18.828125 C 20.597656 -18.804688 21.390625 -18.894531 22.265625 -19.09375 C 23.140625 -19.300781 23.9375 -19.515625 24.65625 -19.734375 C 25.257812 -19.898438 25.691406 -20.007812 25.953125 -20.0625 C 26.671875 -20.226562 27.398438 -20.273438 28.140625 -20.203125 C 28.359375 -20.203125 28.554688 -20.164062 28.734375 -20.09375 C 28.910156 -20.019531 29 -19.828125 29 -19.515625 C 29 -19.398438 28.960938 -19.273438 28.890625 -19.140625 C 28.828125 -19.003906 28.734375 -18.914062 28.609375 -18.875 Z M 13.515625 -16.5 C 13.992188 -16.8125 14.285156 -17.328125 14.390625 -18.046875 C 14.503906 -18.765625 14.425781 -19.457031 14.15625 -20.125 C 14.039062 -20.34375 13.878906 -20.492188 13.671875 -20.578125 C 13.472656 -20.660156 13.265625 -20.703125 13.046875 -20.703125 C 12.617188 -20.628906 12.195312 -20.5 11.78125 -20.3125 C 7.351562 -18.082031 3.773438 -14.914062 1.046875 -10.8125 C 0.515625 -9.851562 0.578125 -9.425781 1.234375 -9.53125 C 1.898438 -9.644531 2.890625 -10.054688 4.203125 -10.765625 C 5.523438 -11.472656 6.890625 -12.285156 8.296875 -13.203125 C 9.710938 -14.128906 10.925781 -14.914062 11.9375 -15.5625 C 12.84375 -16.132812 13.367188 -16.445312 13.515625 -16.5 Z M 13.515625 -16.5 "/></g></g><g style="fill:#f7f5f2;fill-opacity:1;"><g transform="translate(271.327242, 101.988225)"><path style="stroke:none" d="M 20.484375 -13.796875 C 19.097656 -12.429688 17.484375 -11.265625 15.640625 -10.296875 C 13.796875 -9.328125 12.25 -8.691406 11 -8.390625 C 9.75 -8.085938 8.46875 -7.914062 7.15625 -7.875 C 5.039062 -7.78125 3.097656 -8.066406 1.328125 -8.734375 C -1.566406 -9.910156 -2.570312 -12.148438 -1.6875 -15.453125 C -0.851562 -18.304688 0.84375 -20.535156 3.40625 -22.140625 C 5.976562 -23.742188 8.628906 -24.519531 11.359375 -24.46875 C 11.359375 -24.46875 11.378906 -24.46875 11.421875 -24.46875 C 12.117188 -24.519531 12.78125 -24.472656 13.40625 -24.328125 C 14.457031 -23.941406 15.125 -23.316406 15.40625 -22.453125 C 15.695312 -21.597656 15.507812 -20.644531 14.84375 -19.59375 C 13.3125 -17.269531 11.226562 -15.972656 8.59375 -15.703125 C 6.84375 -15.535156 5.148438 -15.617188 3.515625 -15.953125 C 3.210938 -16.003906 2.941406 -15.921875 2.703125 -15.703125 C 2.460938 -15.492188 2.316406 -15.234375 2.265625 -14.921875 C 1.785156 -12.859375 2.421875 -11.539062 4.171875 -10.96875 C 6.328125 -10.21875 8.566406 -10.21875 10.890625 -10.96875 C 13.578125 -11.800781 16.128906 -13.378906 18.546875 -15.703125 C 20.960938 -18.023438 22.359375 -19.109375 22.734375 -18.953125 C 23.109375 -18.796875 23.222656 -18.347656 23.078125 -17.609375 C 22.742188 -16.429688 21.878906 -15.160156 20.484375 -13.796875 Z M 5.171875 -19.59375 C 5.023438 -19.425781 4.921875 -19.238281 4.859375 -19.03125 C 4.804688 -18.820312 4.890625 -18.632812 5.109375 -18.46875 C 5.941406 -17.988281 6.847656 -17.816406 7.828125 -17.953125 C 8.816406 -18.085938 9.648438 -18.457031 10.328125 -19.0625 C 11.015625 -19.675781 11.3125 -20.425781 11.21875 -21.3125 C 11.144531 -21.625 10.972656 -21.820312 10.703125 -21.90625 C 10.441406 -21.988281 10.179688 -22.003906 9.921875 -21.953125 C 8.148438 -21.648438 6.566406 -20.863281 5.171875 -19.59375 Z M 5.171875 -19.59375 "/></g></g><g style="fill:#f7f5f2;fill-opacity:1;"><g transform="translate(292.24366, 101.988225)"><path style="stroke:none" d="M 13.078125 -41.484375 C 14.234375 -41.742188 15.003906 -41.265625 15.390625 -40.046875 C 15.796875 -38.941406 16 -37.835938 16 -36.734375 C 16 -35.722656 15.8125 -34.832031 15.4375 -34.0625 C 15.0625 -33.300781 14.613281 -32.609375 14.09375 -31.984375 C 13.78125 -31.628906 13.4375 -31.429688 13.0625 -31.390625 C 12.695312 -31.359375 12.332031 -31.453125 11.96875 -31.671875 C 11.4375 -31.929688 11.460938 -32.382812 12.046875 -33.03125 C 12.953125 -34.96875 12.96875 -36.472656 12.09375 -37.546875 C 11.21875 -38.628906 10.953125 -39.507812 11.296875 -40.1875 C 11.648438 -40.875 12.242188 -41.304688 13.078125 -41.484375 Z M 13.078125 -41.484375 "/></g></g><g style="fill:#f7f5f2;fill-opacity:1;"><g transform="translate(312.117844, 101.988225)"><path style="stroke:none" d="M 17.390625 -18.21875 C 13.609375 -16.8125 10.878906 -15.660156 9.203125 -14.765625 C 7.984375 -14.171875 7.28125 -13.675781 7.09375 -13.28125 C 6.914062 -12.882812 7.054688 -12.160156 7.515625 -11.109375 C 7.515625 -11.054688 7.550781 -10.984375 7.625 -10.890625 C 8.144531 -9.617188 8.453125 -8.300781 8.546875 -6.9375 C 8.722656 -4.175781 6.382812 -2.242188 1.53125 -1.140625 C -3.320312 -0.046875 -6.566406 -0.015625 -8.203125 -1.046875 C -9.847656 -2.078125 -10.351562 -3.378906 -9.71875 -4.953125 C -9.082031 -6.535156 -7.4375 -8.140625 -4.78125 -9.765625 C -2.125 -11.398438 -0.347656 -12.578125 0.546875 -13.296875 C 1.453125 -14.015625 1.722656 -14.816406 1.359375 -15.703125 C 1.242188 -16.015625 1.113281 -16.328125 0.96875 -16.640625 C 0.65625 -17.378906 0.332031 -18.144531 0 -18.9375 C -0.625 -20.375 -0.894531 -21.785156 -0.8125 -23.171875 C -0.726562 -24.566406 -0.210938 -25.738281 0.734375 -26.6875 C 1.679688 -27.632812 3.148438 -28.144531 5.140625 -28.21875 C 6.265625 -28.257812 7.269531 -28.109375 8.15625 -27.765625 C 9.039062 -27.421875 9.75 -26.78125 10.28125 -25.84375 C 10.707031 -25.195312 10.578125 -24.609375 9.890625 -24.078125 C 9.429688 -23.722656 8.9375 -23.675781 8.40625 -23.9375 C 8.070312 -24.082031 7.75 -24.285156 7.4375 -24.546875 C 7.4375 -24.617188 7.4375 -24.65625 7.4375 -24.65625 C 7.289062 -24.75 7.160156 -24.84375 7.046875 -24.9375 C 6.898438 -25.15625 6.742188 -25.328125 6.578125 -25.453125 C 5.953125 -25.898438 5.320312 -26.035156 4.6875 -25.859375 C 4.050781 -25.679688 3.578125 -25.195312 3.265625 -24.40625 C 3.054688 -23.78125 2.953125 -23.144531 2.953125 -22.5 C 2.992188 -21.707031 3.171875 -20.941406 3.484375 -20.203125 C 3.703125 -19.742188 3.894531 -19.320312 4.0625 -18.9375 C 4.46875 -17.882812 4.800781 -17.160156 5.0625 -16.765625 C 5.332031 -16.367188 5.648438 -16.203125 6.015625 -16.265625 C 6.390625 -16.328125 9.785156 -17.539062 16.203125 -19.90625 C 17.597656 -20.363281 17.992188 -19.800781 17.390625 -18.21875 Z M 1.828125 -4.5 C 3.503906 -5.070312 4.210938 -6.195312 3.953125 -7.875 C 3.953125 -7.988281 3.925781 -8.117188 3.875 -8.265625 C 3.78125 -9.171875 3.585938 -9.867188 3.296875 -10.359375 C 3.015625 -10.859375 2.367188 -10.84375 1.359375 -10.3125 C -1.128906 -8.894531 -3.425781 -7.242188 -5.53125 -5.359375 C -5.675781 -5.191406 -5.8125 -5.035156 -5.9375 -4.890625 C -5.9375 -4.890625 -5.957031 -4.851562 -6 -4.78125 C -6.144531 -4.59375 -6.171875 -4.378906 -6.078125 -4.140625 C -5.984375 -3.898438 -5.765625 -3.78125 -5.421875 -3.78125 C -2.953125 -3.394531 -0.535156 -3.632812 1.828125 -4.5 Z M 1.828125 -4.5 "/></g></g></g></svg>