<svg xmlns="http://www.w3.org/2000/svg" xmlns:xlink="http://www.w3.org/1999/xlink" width="1280" zoomAndPan="magnify" viewBox="0 0 960 485.999983" height="648" preserveAspectRatio="xMidYMid meet" version="1.0"><defs><g/><clipPath id="5fa6005c3c"><rect x="0" width="941" y="0" height="486"/></clipPath></defs><g transform="matrix(1, 0, 0, 1, 15, 0)"><g clip-path="url(#5fa6005c3c)"><g fill="#000000" fill-opacity="1"><g transform="translate(90.472684, 308.811971)"><g><path d="M 507.859375 -131.609375 C 509.523438 -131.265625 510.84375 -130.566406 511.8125 -129.515625 C 512.789062 -128.472656 513.003906 -127.46875 512.453125 -126.5 C 511.828125 -125.59375 511.128906 -125.035156 510.359375 -124.828125 C 509.597656 -124.617188 508.765625 -124.582031 507.859375 -124.71875 C 506.742188 -124.71875 505.59375 -124.785156 504.40625 -124.921875 C 487.832031 -125.410156 465.878906 -124.453125 438.546875 -122.046875 C 411.210938 -119.648438 389.191406 -117.300781 372.484375 -115 C 359.597656 -113.332031 346.710938 -111.523438 333.828125 -109.578125 C 333.554688 -109.578125 333.175781 -109.472656 332.6875 -109.265625 C 327.320312 -108.492188 322.410156 -106.507812 317.953125 -103.3125 C 301.585938 -92.164062 284.664062 -82.066406 267.1875 -73.015625 C 249.707031 -63.960938 231.882812 -55.535156 213.71875 -47.734375 C 184.257812 -34.710938 154.140625 -23.363281 123.359375 -13.6875 C 117.085938 -12.007812 112.492188 -8.175781 109.578125 -2.1875 C 95.921875 25.03125 81.675781 51.664062 66.84375 77.71875 C 53.6875 100.90625 41.050781 124.367188 28.9375 148.109375 C 28.9375 148.253906 28.863281 148.394531 28.71875 148.53125 C 28.238281 149.78125 27.613281 150.789062 26.84375 151.5625 C 25.59375 152.601562 24.128906 152.988281 22.453125 152.71875 C 21.546875 152.988281 20.640625 152.988281 19.734375 152.71875 C 17.859375 151.945312 16.921875 150.550781 16.921875 148.53125 C 17.128906 145.1875 18.207031 142.050781 20.15625 139.125 C 20.300781 138.988281 20.375 138.816406 20.375 138.609375 C 32.625 116.609375 44.6875 94.601562 56.5625 72.59375 C 68.4375 50.59375 79.910156 28.273438 90.984375 5.640625 C 91.890625 3.753906 92.789062 1.835938 93.6875 -0.109375 C 94.039062 -1.078125 94.425781 -2.085938 94.84375 -3.140625 C 93.800781 -3.410156 92.828125 -3.648438 91.921875 -3.859375 C 90.179688 -3.515625 88.472656 -3.03125 86.796875 -2.40625 C 86.171875 -2.257812 85.582031 -2.050781 85.03125 -1.78125 C 63.582031 4.351562 41.890625 9.578125 19.953125 13.890625 C 4.773438 16.609375 -10.472656 18.523438 -25.796875 19.640625 C -26.566406 19.773438 -27.265625 19.84375 -27.890625 19.84375 C -29.421875 19.988281 -30.953125 20.0625 -32.484375 20.0625 C -38.398438 20.0625 -44.144531 19.15625 -49.71875 17.34375 C -53.96875 15.8125 -56.507812 13.390625 -57.34375 10.078125 C -58.175781 6.773438 -57.164062 3.207031 -54.3125 -0.625 C -50.488281 -5.082031 -45.960938 -8.738281 -40.734375 -11.59375 C -28.898438 -18.976562 -16.472656 -25.035156 -3.453125 -29.765625 C 31.296875 -42.929688 66.535156 -54.492188 102.265625 -64.453125 C 104.210938 -65.078125 106.265625 -65.632812 108.421875 -66.125 C 113.015625 -67.03125 117.296875 -68.367188 121.265625 -70.140625 C 125.234375 -71.910156 128.226562 -74.992188 130.25 -79.390625 C 137.769531 -96.722656 145.007812 -114.078125 151.96875 -131.453125 C 158.9375 -148.828125 165.414062 -166.5 171.40625 -184.46875 C 171.40625 -184.601562 171.476562 -184.8125 171.625 -185.09375 C 172.519531 -188.363281 173.738281 -191.425781 175.28125 -194.28125 C 175.90625 -195.257812 176.722656 -195.9375 177.734375 -196.3125 C 178.742188 -196.695312 179.769531 -196.785156 180.8125 -196.578125 C 181.570312 -196.785156 182.40625 -196.785156 183.3125 -196.578125 C 185.613281 -196.023438 186.9375 -194.492188 187.28125 -191.984375 C 187.28125 -187.253906 186.410156 -182.660156 184.671875 -178.203125 C 184.671875 -178.054688 184.601562 -177.847656 184.46875 -177.578125 C 176.945312 -154.597656 168.519531 -132 159.1875 -109.78125 C 156.75 -103.65625 154.242188 -97.597656 151.671875 -91.609375 C 150.691406 -89.453125 149.75 -87.222656 148.84375 -84.921875 C 147.664062 -82.203125 147.179688 -80.335938 147.390625 -79.328125 C 147.597656 -78.316406 148.3125 -77.847656 149.53125 -77.921875 C 150.75 -77.992188 152.226562 -78.34375 153.96875 -78.96875 C 154.519531 -79.101562 155.109375 -79.242188 155.734375 -79.390625 C 162.492188 -81.128906 169.25 -82.832031 176 -84.5 C 188.257812 -87.5625 200.585938 -90.625 212.984375 -93.6875 C 243.347656 -100.863281 273.914062 -106.992188 304.6875 -112.078125 C 310.1875 -112.984375 314.992188 -115.109375 319.109375 -118.453125 C 327.878906 -125.066406 336.546875 -132.847656 345.109375 -141.796875 C 353.679688 -150.742188 360.769531 -160.382812 366.375 -170.71875 C 371.976562 -181.0625 374.5 -191.679688 373.9375 -202.578125 C 373.382812 -213.484375 368.375 -224.296875 358.90625 -235.015625 C 352.78125 -241.421875 345.816406 -246.785156 338.015625 -251.109375 C 321.578125 -259.953125 301.832031 -266.441406 278.78125 -270.578125 C 255.738281 -274.722656 231.035156 -276.914062 204.671875 -277.15625 C 178.316406 -277.40625 151.925781 -276.066406 125.5 -273.140625 C 99.070312 -270.222656 74.332031 -266.171875 51.28125 -260.984375 C 28.238281 -255.796875 8.460938 -249.894531 -8.046875 -243.28125 C -22.316406 -237.632812 -35.894531 -230.664062 -48.78125 -222.375 C -54 -219.175781 -58.90625 -215.660156 -63.5 -211.828125 C -68.101562 -208.003906 -72.210938 -203.617188 -75.828125 -198.671875 C -77.222656 -196.515625 -79.070312 -195.363281 -81.375 -195.21875 C -81.851562 -195.21875 -82.410156 -195.21875 -83.046875 -195.21875 C -83.179688 -195.21875 -83.316406 -195.21875 -83.453125 -195.21875 C -84.359375 -195.21875 -85.226562 -195.335938 -86.0625 -195.578125 C -86.90625 -195.828125 -87.570312 -196.335938 -88.0625 -197.109375 C -88.332031 -197.734375 -88.46875 -198.375 -88.46875 -199.03125 C -88.46875 -199.695312 -88.398438 -200.273438 -88.265625 -200.765625 C -87.078125 -203.546875 -85.472656 -206 -83.453125 -208.125 C -81.429688 -210.25 -79.378906 -212.320312 -77.296875 -214.34375 C -71.722656 -219.070312 -65.925781 -223.351562 -59.90625 -227.1875 C -53.882812 -231.019531 -47.703125 -234.609375 -41.359375 -237.953125 C -25.140625 -246.585938 -4.390625 -254.347656 20.890625 -261.234375 C 46.171875 -268.128906 73.9375 -273.679688 104.1875 -277.890625 C 134.445312 -282.109375 164.929688 -284.410156 195.640625 -284.796875 C 226.347656 -285.179688 255.109375 -283.144531 281.921875 -278.6875 C 308.734375 -274.226562 331.570312 -266.773438 350.4375 -256.328125 C 358.863281 -251.734375 366.421875 -245.847656 373.109375 -238.671875 C 382.515625 -228.085938 387.859375 -217.625 389.140625 -207.28125 C 390.429688 -196.945312 389.003906 -186.921875 384.859375 -177.203125 C 380.710938 -167.492188 375 -158.234375 367.71875 -149.421875 C 360.445312 -140.609375 352.984375 -132.375 345.328125 -124.71875 C 344.421875 -123.945312 343.515625 -122.988281 342.609375 -121.84375 C 341.703125 -120.695312 341.316406 -119.738281 341.453125 -118.96875 C 341.597656 -118.207031 342.75 -117.960938 344.90625 -118.234375 C 370.601562 -122.421875 396.242188 -125.570312 421.828125 -127.6875 C 447.421875 -129.8125 473.171875 -131.257812 499.078125 -132.03125 C 499.847656 -132.03125 500.546875 -132.03125 501.171875 -132.03125 L 501.375 -132.03125 C 503.539062 -132.03125 505.703125 -131.890625 507.859375 -131.609375 Z M 103.40625 -20.15625 C 103.96875 -21.550781 105.015625 -23.535156 106.546875 -26.109375 C 108.703125 -30.222656 110.960938 -34.769531 113.328125 -39.75 C 115.703125 -44.726562 117.425781 -49.097656 118.5 -52.859375 C 119.582031 -56.617188 119.046875 -58.671875 116.890625 -59.015625 C 115.566406 -58.804688 114.273438 -58.492188 113.015625 -58.078125 C 112.734375 -58.078125 112.351562 -58.007812 111.875 -57.875 C 107 -56.332031 102.085938 -54.867188 97.140625 -53.484375 C 85.367188 -50.066406 73.566406 -46.445312 61.734375 -42.625 C 61.171875 -42.476562 60.578125 -42.265625 59.953125 -41.984375 C 38.785156 -35.515625 17.929688 -28.066406 -2.609375 -19.640625 C -12.984375 -15.390625 -22.835938 -10.203125 -32.171875 -4.078125 C -35.722656 -2.054688 -38.648438 0.625 -40.953125 3.96875 C -41.847656 5.363281 -42.101562 6.632812 -41.71875 7.78125 C -41.34375 8.925781 -40.390625 9.816406 -38.859375 10.453125 C -35.648438 11.492188 -32.375 12.015625 -29.03125 12.015625 C -26.113281 12.015625 -23.191406 11.875 -20.265625 11.59375 C -20.128906 11.59375 -20.0625 11.59375 -20.0625 11.59375 C -4.875 10.0625 10.0625 7.585938 24.75 4.171875 C 48.082031 -0.972656 71.132812 -6.992188 93.90625 -13.890625 C 94.25 -14.097656 94.492188 -14.203125 94.640625 -14.203125 C 96.441406 -14.617188 98.109375 -15.242188 99.640625 -16.078125 C 101.179688 -16.921875 102.4375 -18.28125 103.40625 -20.15625 Z M 122.9375 -24.234375 C 136.726562 -27.785156 155.492188 -34.414062 179.234375 -44.125 C 202.984375 -53.84375 225.804688 -64.113281 247.703125 -74.9375 C 269.609375 -85.769531 284.53125 -94.703125 292.46875 -101.734375 C 291.425781 -101.734375 290.519531 -101.734375 289.75 -101.734375 C 289.40625 -101.734375 289.164062 -101.734375 289.03125 -101.734375 C 240.90625 -92.191406 193.269531 -80.84375 146.125 -67.6875 C 141.945312 -66.5 139.09375 -63.992188 137.5625 -60.171875 C 134.707031 -54.035156 131.890625 -47.972656 129.109375 -41.984375 C 126.941406 -37.535156 124.78125 -33.007812 122.625 -28.40625 C 122.351562 -27.78125 122.179688 -27.082031 122.109375 -26.3125 C 122.035156 -25.550781 122.3125 -24.859375 122.9375 -24.234375 Z M 122.9375 -24.234375 "/></g></g></g><g fill="#000000" fill-opacity="1"><g transform="translate(383.36461, 308.811971)"><g><path d="M 59.53125 -40.109375 C 55.5 -36.140625 50.800781 -32.742188 45.4375 -29.921875 C 40.070312 -27.109375 35.578125 -25.265625 31.953125 -24.390625 C 28.335938 -23.515625 24.613281 -23.007812 20.78125 -22.875 C 14.65625 -22.59375 9.015625 -23.425781 3.859375 -25.375 C -4.566406 -28.789062 -7.488281 -35.304688 -4.90625 -44.921875 C -2.46875 -53.203125 2.472656 -59.675781 9.921875 -64.34375 C 17.367188 -69.007812 25.0625 -71.273438 33 -71.140625 C 33 -71.140625 33.070312 -71.140625 33.21875 -71.140625 C 35.238281 -71.273438 37.15625 -71.132812 38.96875 -70.71875 C 42.03125 -69.601562 43.976562 -67.789062 44.8125 -65.28125 C 45.644531 -62.769531 45.085938 -59.984375 43.140625 -56.921875 C 38.679688 -50.171875 32.625 -46.410156 24.96875 -45.640625 C 19.882812 -45.160156 14.972656 -45.40625 10.234375 -46.375 C 9.328125 -46.519531 8.523438 -46.273438 7.828125 -45.640625 C 7.140625 -45.015625 6.722656 -44.25 6.578125 -43.34375 C 5.179688 -37.351562 7.023438 -33.523438 12.109375 -31.859375 C 18.378906 -29.703125 24.894531 -29.703125 31.65625 -31.859375 C 39.445312 -34.296875 46.859375 -38.890625 53.890625 -45.640625 C 60.929688 -52.398438 64.988281 -55.550781 66.0625 -55.09375 C 67.144531 -54.644531 67.476562 -53.34375 67.0625 -51.1875 C 66.082031 -47.769531 63.570312 -44.078125 59.53125 -40.109375 Z M 15.046875 -56.921875 C 14.628906 -56.441406 14.332031 -55.90625 14.15625 -55.3125 C 13.976562 -54.71875 14.203125 -54.175781 14.828125 -53.6875 C 17.265625 -52.289062 19.910156 -51.785156 22.765625 -52.171875 C 25.617188 -52.554688 28.035156 -53.632812 30.015625 -55.40625 C 32.003906 -57.1875 32.863281 -59.363281 32.59375 -61.9375 C 32.382812 -62.84375 31.894531 -63.414062 31.125 -63.65625 C 30.363281 -63.90625 29.597656 -63.960938 28.828125 -63.828125 C 23.671875 -62.921875 19.078125 -60.617188 15.046875 -56.921875 Z M 15.046875 -56.921875 "/></g></g></g><g fill="#000000" fill-opacity="1"><g transform="translate(444.157442, 308.811971)"><g><path d="M 82.734375 -52.125 C 83.847656 -50.726562 82.453125 -48.1875 78.546875 -44.5 C 74.648438 -40.8125 70.503906 -37.710938 66.109375 -35.203125 C 61.722656 -32.691406 56.644531 -30.1875 50.875 -27.6875 C 47.039062 -26.007812 42.960938 -25.445312 38.640625 -26 C 34.328125 -26.5625 32.171875 -29.175781 32.171875 -33.84375 C 32.171875 -38.507812 33.25 -43.140625 35.40625 -47.734375 C 37.5625 -52.472656 38.03125 -54.910156 36.8125 -55.046875 C 35.59375 -55.179688 33.070312 -54.03125 29.25 -51.59375 C 19.289062 -45.050781 10.03125 -37.566406 1.46875 -29.140625 C -0.832031 -26.359375 -3.757812 -24.828125 -7.3125 -24.546875 C -9.125 -24.546875 -10.535156 -25.117188 -11.546875 -26.265625 C -12.554688 -27.421875 -12.675781 -28.660156 -11.90625 -29.984375 C -5.78125 -41.328125 0.414062 -52.535156 6.6875 -63.609375 C 8.082031 -65.910156 10.171875 -67.335938 12.953125 -67.890625 C 14.140625 -68.097656 15.234375 -67.734375 16.234375 -66.796875 C 17.242188 -65.859375 17.75 -64.796875 17.75 -63.609375 C 17.613281 -62.492188 17.164062 -61.171875 16.40625 -59.640625 C 16.050781 -58.734375 15.71875 -57.863281 15.40625 -57.03125 C 15.09375 -56.195312 14.988281 -55.5 15.09375 -54.9375 C 15.195312 -54.382812 15.632812 -54.210938 16.40625 -54.421875 C 17.445312 -54.972656 18.488281 -55.566406 19.53125 -56.203125 C 22.175781 -57.734375 24.71875 -59.191406 27.15625 -60.578125 C 29.3125 -61.835938 31.570312 -62.953125 33.9375 -63.921875 C 36.3125 -64.898438 38.785156 -65.5625 41.359375 -65.90625 C 45.535156 -66.1875 48.492188 -65.25 50.234375 -63.09375 C 51.984375 -60.9375 52.195312 -57.941406 50.875 -54.109375 C 49.476562 -50.628906 48.015625 -47.179688 46.484375 -43.765625 C 44.597656 -40.566406 44.28125 -38.128906 45.53125 -36.453125 C 46.789062 -34.785156 52.609375 -36.703125 62.984375 -42.203125 L 70.8125 -46.796875 C 78.195312 -51.523438 82.171875 -53.300781 82.734375 -52.125 Z M 82.734375 -52.125 "/></g></g></g><g fill="#000000" fill-opacity="1"><g transform="translate(520.723004, 308.811971)"><g><path d="M 59.53125 -40.109375 C 55.5 -36.140625 50.800781 -32.742188 45.4375 -29.921875 C 40.070312 -27.109375 35.578125 -25.265625 31.953125 -24.390625 C 28.335938 -23.515625 24.613281 -23.007812 20.78125 -22.875 C 14.65625 -22.59375 9.015625 -23.425781 3.859375 -25.375 C -4.566406 -28.789062 -7.488281 -35.304688 -4.90625 -44.921875 C -2.46875 -53.203125 2.472656 -59.675781 9.921875 -64.34375 C 17.367188 -69.007812 25.0625 -71.273438 33 -71.140625 C 33 -71.140625 33.070312 -71.140625 33.21875 -71.140625 C 35.238281 -71.273438 37.15625 -71.132812 38.96875 -70.71875 C 42.03125 -69.601562 43.976562 -67.789062 44.8125 -65.28125 C 45.644531 -62.769531 45.085938 -59.984375 43.140625 -56.921875 C 38.679688 -50.171875 32.625 -46.410156 24.96875 -45.640625 C 19.882812 -45.160156 14.972656 -45.40625 10.234375 -46.375 C 9.328125 -46.519531 8.523438 -46.273438 7.828125 -45.640625 C 7.140625 -45.015625 6.722656 -44.25 6.578125 -43.34375 C 5.179688 -37.351562 7.023438 -33.523438 12.109375 -31.859375 C 18.378906 -29.703125 24.894531 -29.703125 31.65625 -31.859375 C 39.445312 -34.296875 46.859375 -38.890625 53.890625 -45.640625 C 60.929688 -52.398438 64.988281 -55.550781 66.0625 -55.09375 C 67.144531 -54.644531 67.476562 -53.34375 67.0625 -51.1875 C 66.082031 -47.769531 63.570312 -44.078125 59.53125 -40.109375 Z M 15.046875 -56.921875 C 14.628906 -56.441406 14.332031 -55.90625 14.15625 -55.3125 C 13.976562 -54.71875 14.203125 -54.175781 14.828125 -53.6875 C 17.265625 -52.289062 19.910156 -51.785156 22.765625 -52.171875 C 25.617188 -52.554688 28.035156 -53.632812 30.015625 -55.40625 C 32.003906 -57.1875 32.863281 -59.363281 32.59375 -61.9375 C 32.382812 -62.84375 31.894531 -63.414062 31.125 -63.65625 C 30.363281 -63.90625 29.597656 -63.960938 28.828125 -63.828125 C 23.671875 -62.921875 19.078125 -60.617188 15.046875 -56.921875 Z M 37.1875 -96.203125 C 37.601562 -96.960938 38.28125 -97.460938 39.21875 -97.703125 C 40.15625 -97.953125 41.078125 -98.078125 41.984375 -98.078125 C 42.265625 -97.867188 42.476562 -97.765625 42.625 -97.765625 C 42.96875 -97.765625 43.347656 -97.695312 43.765625 -97.5625 C 46.066406 -97.144531 47.335938 -96.460938 47.578125 -95.515625 C 47.816406 -94.578125 47.550781 -93.566406 46.78125 -92.484375 C 46.019531 -91.410156 45.1875 -90.421875 44.28125 -89.515625 C 41.988281 -87.078125 39.765625 -84.328125 37.609375 -81.265625 C 35.796875 -78.691406 34.15625 -76.632812 32.6875 -75.09375 C 31.226562 -73.5625 30.117188 -73.320312 29.359375 -74.375 C 28.585938 -75 28.164062 -75.726562 28.09375 -76.5625 C 28.03125 -77.394531 28.132812 -78.265625 28.40625 -79.171875 C 29.039062 -81.960938 30.035156 -84.578125 31.390625 -87.015625 C 32.742188 -89.453125 34.1875 -91.816406 35.71875 -94.109375 C 36.207031 -94.734375 36.695312 -95.429688 37.1875 -96.203125 Z M 37.1875 -96.203125 "/></g></g></g><g fill="#000000" fill-opacity="1"><g transform="translate(581.515837, 308.811971)"><g><path d="M 50.5625 -49.828125 C 52.851562 -52.117188 54.765625 -53.40625 56.296875 -53.6875 C 57.828125 -53.96875 58.816406 -53.722656 59.265625 -52.953125 C 59.722656 -52.191406 59.429688 -51.148438 58.390625 -49.828125 C 52.265625 -42.441406 45.40625 -36.066406 37.8125 -30.703125 C 30.21875 -25.347656 22.398438 -22.25 14.359375 -21.40625 C 6.316406 -20.570312 1.460938 -24.960938 -0.203125 -34.578125 C -1.460938 -44.117188 4.3125 -63.546875 17.125 -92.859375 C 29.9375 -122.171875 40.070312 -146.195312 47.53125 -164.9375 C 48.15625 -166.601562 49.09375 -168.0625 50.34375 -169.3125 C 52.019531 -170.988281 54.003906 -171.375 56.296875 -170.46875 C 57.066406 -170.125 57.832031 -169.566406 58.59375 -168.796875 C 59.363281 -168.035156 59.609375 -166.675781 59.328125 -164.71875 C 26.390625 -86.59375 10.441406 -44.113281 11.484375 -37.28125 C 12.535156 -30.457031 16.941406 -28.769531 24.703125 -32.21875 C 32.460938 -35.664062 38.445312 -39.179688 42.65625 -42.765625 C 46.875 -46.359375 49.507812 -48.710938 50.5625 -49.828125 Z M 50.5625 -49.828125 "/></g></g></g><g fill="#000000" fill-opacity="1"><g transform="translate(633.638919, 308.811971)"><g><path d="M 16.609375 -24.75 L 16.296875 -24.75 C 6.203125 -24.894531 -0.441406 -27.140625 -3.640625 -31.484375 C -6.847656 -35.835938 -6.710938 -41.640625 -3.234375 -48.890625 C -0.304688 -54.390625 3.378906 -59.191406 7.828125 -63.296875 C 9.359375 -64.691406 10.925781 -65.804688 12.53125 -66.640625 C 14.132812 -67.472656 15.945312 -67.890625 17.96875 -67.890625 C 19.144531 -68.097656 20.503906 -67.890625 22.046875 -67.265625 C 22.523438 -67.128906 23.007812 -66.957031 23.5 -66.75 C 24.6875 -66.957031 25.835938 -67.335938 26.953125 -67.890625 C 27.222656 -68.097656 27.601562 -68.273438 28.09375 -68.421875 C 30.394531 -69.328125 32.832031 -69.707031 35.40625 -69.5625 C 36.457031 -69.5625 37.535156 -69.5625 38.640625 -69.5625 C 42.753906 -68.9375 45.851562 -67.210938 47.9375 -64.390625 C 50.03125 -61.578125 50.765625 -58.148438 50.140625 -54.109375 C 49.785156 -51.671875 49.019531 -49.375 47.84375 -47.21875 C 39.832031 -32.875 29.628906 -25.382812 17.234375 -24.75 Z M 33.109375 -62.15625 C 27.609375 -62.363281 22.71875 -60.773438 18.4375 -57.390625 C 14.15625 -54.015625 10.96875 -50.132812 8.875 -45.75 C 6.789062 -41.363281 6.21875 -37.757812 7.15625 -34.9375 C 8.09375 -32.113281 11 -31.332031 15.875 -32.59375 C 21.375 -34.257812 26.226562 -37.390625 30.4375 -41.984375 C 34.65625 -46.585938 37.234375 -50.957031 38.171875 -55.09375 C 39.117188 -59.238281 37.429688 -61.59375 33.109375 -62.15625 Z M 33.109375 -62.15625 "/></g></g></g><g fill="#000000" fill-opacity="1"><g transform="translate(689.104563, 308.811971)"><g><path d="M 83.140625 -54.84375 C 81.609375 -54.207031 80.007812 -53.679688 78.34375 -53.265625 C 77.925781 -53.054688 77.539062 -52.882812 77.1875 -52.75 C 75.519531 -52.125 73.847656 -51.53125 72.171875 -50.96875 C 67.441406 -49.4375 62.601562 -47.800781 57.65625 -46.0625 C 53.96875 -45.019531 51.078125 -42.722656 48.984375 -39.171875 C 45.578125 -33.671875 41.3125 -29.382812 36.1875 -26.3125 C 31.070312 -23.25 25.867188 -21.070312 20.578125 -19.78125 C 15.285156 -18.5 10.601562 -17.703125 6.53125 -17.390625 C 2.457031 -17.078125 -0.171875 -16.988281 -1.359375 -17.125 C -1.492188 -17.125 -1.664062 -17.125 -1.875 -17.125 C -3.550781 -16.082031 -5.222656 -14.03125 -6.890625 -10.96875 C -8.566406 -7.90625 -10.03125 -5.15625 -11.28125 -2.71875 C -11.5625 -2.09375 -11.769531 -1.535156 -11.90625 -1.046875 C -18.800781 12.742188 -25.625 26.53125 -32.375 40.3125 C -36.207031 47.976562 -40.039062 55.640625 -43.875 63.296875 C -45.125 66.015625 -46.582031 68.628906 -48.25 71.140625 C -49.789062 73.085938 -51.707031 73.46875 -54 72.28125 C -55.53125 71.164062 -55.914062 69.632812 -55.15625 67.6875 C -54.382812 65.664062 -53.546875 63.644531 -52.640625 61.625 C -40.660156 33.28125 -27.953125 5.253906 -14.515625 -22.453125 C -10.335938 -31.023438 -6.40625 -39.765625 -2.71875 -48.671875 C -1.039062 -52.785156 0.695312 -57 2.5 -61.3125 C 2.644531 -61.726562 2.890625 -62.179688 3.234375 -62.671875 C 4.140625 -64.972656 5.21875 -67.203125 6.46875 -69.359375 C 7.03125 -70.117188 8.078125 -70.601562 9.609375 -70.8125 C 11.140625 -71.03125 12.460938 -70.820312 13.578125 -70.1875 C 14.972656 -69.28125 15.671875 -67.925781 15.671875 -66.125 C 15.671875 -65.21875 15.492188 -64.273438 15.140625 -63.296875 C 14.867188 -62.535156 14.695312 -61.769531 14.625 -61 C 14.550781 -60.238281 14.796875 -59.472656 15.359375 -58.703125 C 16.472656 -58.566406 17.445312 -58.722656 18.28125 -59.171875 C 19.113281 -59.628906 19.914062 -60.171875 20.6875 -60.796875 C 21.445312 -61.421875 22.347656 -61.875 23.390625 -62.15625 C 24.023438 -62.5 24.65625 -62.8125 25.28125 -63.09375 C 28.625 -64.625 31.929688 -65.945312 35.203125 -67.0625 C 39.453125 -68.382812 43.664062 -68.070312 47.84375 -66.125 C 49.65625 -65.007812 51.007812 -63.648438 51.90625 -62.046875 C 52.8125 -60.441406 53.507812 -58.734375 54 -56.921875 C 54.488281 -55.535156 55.757812 -54.804688 57.8125 -54.734375 C 59.863281 -54.660156 62.160156 -54.921875 64.703125 -55.515625 C 67.242188 -56.109375 69.5625 -56.71875 71.65625 -57.34375 C 73.394531 -57.832031 74.648438 -58.144531 75.421875 -58.28125 C 77.503906 -58.769531 79.625 -58.910156 81.78125 -58.703125 C 82.414062 -58.703125 82.992188 -58.597656 83.515625 -58.390625 C 84.035156 -58.179688 84.296875 -57.625 84.296875 -56.71875 C 84.296875 -56.375 84.191406 -56.007812 83.984375 -55.625 C 83.773438 -55.238281 83.492188 -54.976562 83.140625 -54.84375 Z M 39.28125 -47.9375 C 40.664062 -48.84375 41.515625 -50.335938 41.828125 -52.421875 C 42.140625 -54.515625 41.914062 -56.539062 41.15625 -58.5 C 40.800781 -59.125 40.328125 -59.554688 39.734375 -59.796875 C 39.148438 -60.046875 38.546875 -60.171875 37.921875 -60.171875 C 36.660156 -59.960938 35.441406 -59.578125 34.265625 -59.015625 C 21.378906 -52.535156 10.96875 -43.34375 3.03125 -31.4375 C 1.5 -28.65625 1.6875 -27.421875 3.59375 -27.734375 C 5.507812 -28.046875 8.382812 -29.226562 12.21875 -31.28125 C 16.050781 -33.332031 20.019531 -35.695312 24.125 -38.375 C 28.238281 -41.0625 31.753906 -43.347656 34.671875 -45.234375 C 37.316406 -46.898438 38.851562 -47.800781 39.28125 -47.9375 Z M 39.28125 -47.9375 "/></g></g></g><g fill="#000000" fill-opacity="1"><g transform="translate(766.087946, 308.811971)"><g><path d="M 59.53125 -40.109375 C 55.5 -36.140625 50.800781 -32.742188 45.4375 -29.921875 C 40.070312 -27.109375 35.578125 -25.265625 31.953125 -24.390625 C 28.335938 -23.515625 24.613281 -23.007812 20.78125 -22.875 C 14.65625 -22.59375 9.015625 -23.425781 3.859375 -25.375 C -4.566406 -28.789062 -7.488281 -35.304688 -4.90625 -44.921875 C -2.46875 -53.203125 2.472656 -59.675781 9.921875 -64.34375 C 17.367188 -69.007812 25.0625 -71.273438 33 -71.140625 C 33 -71.140625 33.070312 -71.140625 33.21875 -71.140625 C 35.238281 -71.273438 37.15625 -71.132812 38.96875 -70.71875 C 42.03125 -69.601562 43.976562 -67.789062 44.8125 -65.28125 C 45.644531 -62.769531 45.085938 -59.984375 43.140625 -56.921875 C 38.679688 -50.171875 32.625 -46.410156 24.96875 -45.640625 C 19.882812 -45.160156 14.972656 -45.40625 10.234375 -46.375 C 9.328125 -46.519531 8.523438 -46.273438 7.828125 -45.640625 C 7.140625 -45.015625 6.722656 -44.25 6.578125 -43.34375 C 5.179688 -37.351562 7.023438 -33.523438 12.109375 -31.859375 C 18.378906 -29.703125 24.894531 -29.703125 31.65625 -31.859375 C 39.445312 -34.296875 46.859375 -38.890625 53.890625 -45.640625 C 60.929688 -52.398438 64.988281 -55.550781 66.0625 -55.09375 C 67.144531 -54.644531 67.476562 -53.34375 67.0625 -51.1875 C 66.082031 -47.769531 63.570312 -44.078125 59.53125 -40.109375 Z M 15.046875 -56.921875 C 14.628906 -56.441406 14.332031 -55.90625 14.15625 -55.3125 C 13.976562 -54.71875 14.203125 -54.175781 14.828125 -53.6875 C 17.265625 -52.289062 19.910156 -51.785156 22.765625 -52.171875 C 25.617188 -52.554688 28.035156 -53.632812 30.015625 -55.40625 C 32.003906 -57.1875 32.863281 -59.363281 32.59375 -61.9375 C 32.382812 -62.84375 31.894531 -63.414062 31.125 -63.65625 C 30.363281 -63.90625 29.597656 -63.960938 28.828125 -63.828125 C 23.671875 -62.921875 19.078125 -60.617188 15.046875 -56.921875 Z M 15.046875 -56.921875 "/></g></g></g><g fill="#000000" fill-opacity="1"><g transform="translate(826.880816, 308.811971)"><g><path d="M 38.015625 -120.546875 C 41.359375 -121.304688 43.585938 -119.910156 44.703125 -116.359375 C 45.890625 -113.160156 46.484375 -109.957031 46.484375 -106.75 C 46.484375 -103.820312 45.941406 -101.242188 44.859375 -99.015625 C 43.785156 -96.796875 42.484375 -94.78125 40.953125 -92.96875 C 40.046875 -91.914062 39.050781 -91.335938 37.96875 -91.234375 C 36.882812 -91.128906 35.820312 -91.394531 34.78125 -92.03125 C 33.25 -92.789062 33.316406 -94.113281 34.984375 -96 C 37.640625 -101.632812 37.695312 -106.019531 35.15625 -109.15625 C 32.613281 -112.289062 31.84375 -114.847656 32.84375 -116.828125 C 33.851562 -118.816406 35.578125 -120.054688 38.015625 -120.546875 Z M 38.015625 -120.546875 "/></g></g></g><g fill="#000000" fill-opacity="1"><g transform="translate(884.644434, 308.811971)"><g><path d="M 50.5625 -52.953125 C 39.550781 -48.847656 31.609375 -45.507812 26.734375 -42.9375 C 23.179688 -41.1875 21.144531 -39.738281 20.625 -38.59375 C 20.101562 -37.445312 20.503906 -35.34375 21.828125 -32.28125 C 21.828125 -32.132812 21.929688 -31.925781 22.140625 -31.65625 C 23.671875 -27.957031 24.578125 -24.125 24.859375 -20.15625 C 25.347656 -12.144531 18.539062 -6.535156 4.4375 -3.328125 C -9.664062 -0.128906 -19.097656 -0.0234375 -23.859375 -3.015625 C -28.628906 -6.015625 -30.09375 -9.8125 -28.25 -14.40625 C -26.40625 -19.007812 -21.617188 -23.675781 -13.890625 -28.40625 C -6.160156 -33.144531 -0.992188 -36.554688 1.609375 -38.640625 C 4.222656 -40.734375 5.007812 -43.066406 3.96875 -45.640625 C 3.625 -46.546875 3.238281 -47.453125 2.8125 -48.359375 C 1.914062 -50.515625 0.976562 -52.742188 0 -55.046875 C -1.8125 -59.222656 -2.59375 -63.332031 -2.34375 -67.375 C -2.101562 -71.414062 -0.609375 -74.8125 2.140625 -77.5625 C 4.890625 -80.3125 9.15625 -81.789062 14.9375 -82 C 18.207031 -82.132812 21.128906 -81.695312 23.703125 -80.6875 C 26.285156 -79.675781 28.34375 -77.816406 29.875 -75.109375 C 31.125 -73.222656 30.738281 -71.515625 28.71875 -69.984375 C 27.394531 -68.941406 25.96875 -68.800781 24.4375 -69.5625 C 23.46875 -69.976562 22.53125 -70.570312 21.625 -71.34375 C 21.625 -71.550781 21.625 -71.65625 21.625 -71.65625 C 21.207031 -71.9375 20.820312 -72.210938 20.46875 -72.484375 C 20.050781 -73.117188 19.597656 -73.609375 19.109375 -73.953125 C 17.304688 -75.273438 15.476562 -75.675781 13.625 -75.15625 C 11.78125 -74.632812 10.40625 -73.222656 9.5 -70.921875 C 8.875 -69.109375 8.5625 -67.265625 8.5625 -65.390625 C 8.707031 -63.085938 9.226562 -60.859375 10.125 -58.703125 C 10.757812 -57.378906 11.316406 -56.160156 11.796875 -55.046875 C 12.984375 -51.984375 13.957031 -49.875 14.71875 -48.71875 C 15.488281 -47.570312 16.410156 -47.085938 17.484375 -47.265625 C 18.566406 -47.441406 28.441406 -50.976562 47.109375 -57.875 C 51.148438 -59.195312 52.300781 -57.554688 50.5625 -52.953125 Z M 5.328125 -13.0625 C 10.203125 -14.726562 12.253906 -18 11.484375 -22.875 C 11.484375 -23.21875 11.414062 -23.601562 11.28125 -24.03125 C 11 -26.675781 10.441406 -28.710938 9.609375 -30.140625 C 8.773438 -31.566406 6.894531 -31.515625 3.96875 -29.984375 C -3.269531 -25.867188 -9.953125 -21.0625 -16.078125 -15.5625 C -16.503906 -15.070312 -16.890625 -14.617188 -17.234375 -14.203125 C -17.234375 -14.203125 -17.300781 -14.097656 -17.4375 -13.890625 C -17.863281 -13.335938 -17.9375 -12.710938 -17.65625 -12.015625 C -17.375 -11.316406 -16.742188 -10.96875 -15.765625 -10.96875 C -8.597656 -9.851562 -1.566406 -10.550781 5.328125 -13.0625 Z M 5.328125 -13.0625 "/></g></g></g></g></g><g fill="#000000" fill-opacity="1"><g transform="translate(429.496097, 349.153156)"><g/></g></g><g fill="#000000" fill-opacity="1"><g transform="translate(436.738284, 349.153156)"><g><path d="M 13.28125 -9.078125 C 13.550781 -7.867188 13.613281 -6.625 13.46875 -5.34375 C 13.320312 -4.0625 12.960938 -2.878906 12.390625 -1.796875 C 11.953125 -1.128906 11.335938 -0.675781 10.546875 -0.4375 C 9.753906 -0.195312 8.972656 -0.0507812 8.203125 0 C 7.460938 0.0507812 6.585938 0.078125 5.578125 0.078125 C 4.566406 0.078125 3.738281 0.078125 3.09375 0.078125 C 2.875 0.078125 2.609375 0.0625 2.296875 0.03125 C 1.992188 0.0078125 1.851562 -0.164062 1.875 -0.5 C 1.851562 -4.320312 1.847656 -8.132812 1.859375 -11.9375 C 1.867188 -15.738281 1.863281 -19.546875 1.84375 -23.359375 C 1.863281 -23.523438 1.851562 -23.734375 1.8125 -23.984375 C 1.78125 -24.242188 1.773438 -24.476562 1.796875 -24.6875 C 1.828125 -24.90625 1.9375 -25.050781 2.125 -25.125 C 2.726562 -25.144531 3.332031 -25.144531 3.9375 -25.125 C 4.550781 -25.101562 5.160156 -25.09375 5.765625 -25.09375 C 7.347656 -25.164062 8.710938 -24.90625 9.859375 -24.3125 C 11.015625 -23.726562 11.710938 -22.582031 11.953125 -20.875 C 12.046875 -20.351562 12.097656 -19.742188 12.109375 -19.046875 C 12.117188 -18.347656 12.054688 -17.640625 11.921875 -16.921875 C 11.796875 -16.203125 11.582031 -15.550781 11.28125 -14.96875 C 10.988281 -14.394531 10.585938 -13.976562 10.078125 -13.71875 C 10.003906 -13.664062 9.878906 -13.601562 9.703125 -13.53125 C 9.523438 -13.457031 9.539062 -13.398438 9.75 -13.359375 C 10.738281 -13.085938 11.546875 -12.550781 12.171875 -11.75 C 12.796875 -10.945312 13.164062 -10.054688 13.28125 -9.078125 Z M 5.4375 -17.421875 C 5.457031 -17.328125 5.460938 -17.222656 5.453125 -17.109375 C 5.441406 -17.003906 5.460938 -16.914062 5.515625 -16.84375 C 5.554688 -16.800781 5.675781 -16.78125 5.875 -16.78125 C 6.132812 -16.75 6.398438 -16.742188 6.671875 -16.765625 C 6.953125 -16.796875 7.222656 -16.847656 7.484375 -16.921875 C 7.628906 -16.960938 7.78125 -17.015625 7.9375 -17.078125 C 8.09375 -17.140625 8.21875 -17.21875 8.3125 -17.3125 C 8.644531 -17.625 8.828125 -18.050781 8.859375 -18.59375 C 8.898438 -19.132812 8.882812 -19.609375 8.8125 -20.015625 C 8.75 -20.441406 8.570312 -20.765625 8.28125 -20.984375 C 7.914062 -21.253906 7.554688 -21.421875 7.203125 -21.484375 C 7.078125 -21.515625 6.945312 -21.53125 6.8125 -21.53125 C 6.6875 -21.53125 6.5625 -21.53125 6.4375 -21.53125 C 6.300781 -21.53125 6.160156 -21.53125 6.015625 -21.53125 C 5.867188 -21.53125 5.734375 -21.515625 5.609375 -21.484375 C 5.492188 -21.460938 5.441406 -21.390625 5.453125 -21.265625 C 5.460938 -21.148438 5.457031 -21.046875 5.4375 -20.953125 C 5.4375 -20.878906 5.4375 -20.804688 5.4375 -20.734375 C 5.4375 -20.660156 5.4375 -20.601562 5.4375 -20.5625 C 5.4375 -20.03125 5.4375 -19.5 5.4375 -18.96875 C 5.4375 -18.445312 5.4375 -17.929688 5.4375 -17.421875 Z M 9.859375 -5.109375 C 10.023438 -5.640625 10.109375 -6.226562 10.109375 -6.875 C 10.109375 -7.519531 10.023438 -8.109375 9.859375 -8.640625 C 9.691406 -9.003906 9.410156 -9.304688 9.015625 -9.546875 C 8.617188 -9.785156 8.242188 -9.953125 7.890625 -10.046875 C 7.578125 -10.085938 7.265625 -10.101562 6.953125 -10.09375 C 6.640625 -10.082031 6.3125 -10.078125 5.96875 -10.078125 C 5.925781 -10.078125 5.867188 -10.078125 5.796875 -10.078125 C 5.722656 -10.078125 5.660156 -10.054688 5.609375 -10.015625 C 5.609375 -9.960938 5.597656 -9.898438 5.578125 -9.828125 C 5.578125 -9.753906 5.578125 -9.660156 5.578125 -9.546875 C 5.578125 -9.441406 5.578125 -9.351562 5.578125 -9.28125 C 5.578125 -8.46875 5.578125 -7.644531 5.578125 -6.8125 C 5.578125 -5.988281 5.578125 -5.15625 5.578125 -4.3125 C 5.578125 -4.269531 5.578125 -4.210938 5.578125 -4.140625 C 5.578125 -4.066406 5.578125 -3.992188 5.578125 -3.921875 C 5.578125 -3.804688 5.601562 -3.722656 5.65625 -3.671875 C 5.675781 -3.617188 5.769531 -3.59375 5.9375 -3.59375 C 6.0625 -3.59375 6.171875 -3.59375 6.265625 -3.59375 C 7.003906 -3.519531 7.710938 -3.609375 8.390625 -3.859375 C 8.742188 -3.953125 9.039062 -4.085938 9.28125 -4.265625 C 9.519531 -4.441406 9.710938 -4.722656 9.859375 -5.109375 Z M 9.859375 -5.109375 "/></g></g></g><g fill="#000000" fill-opacity="1"><g transform="translate(452.074315, 349.153156)"><g><path d="M 11.921875 -22.171875 C 12.054688 -19.609375 12.097656 -17.035156 12.046875 -14.453125 C 12.003906 -11.867188 12 -9.296875 12.03125 -6.734375 C 12 -6.035156 11.992188 -5.296875 12.015625 -4.515625 C 12.046875 -3.734375 11.96875 -2.988281 11.78125 -2.28125 C 11.601562 -1.570312 11.179688 -1.003906 10.515625 -0.578125 C 9.765625 -0.242188 8.910156 -0.0195312 7.953125 0.09375 C 6.992188 0.21875 6.050781 0.1875 5.125 0 C 4.207031 -0.1875 3.445312 -0.59375 2.84375 -1.21875 C 2.601562 -1.4375 2.398438 -1.816406 2.234375 -2.359375 C 2.066406 -2.898438 1.945312 -3.46875 1.875 -4.0625 C 1.800781 -4.664062 1.773438 -5.171875 1.796875 -5.578125 C 1.828125 -6.773438 1.84375 -7.96875 1.84375 -9.15625 C 1.84375 -10.34375 1.84375 -11.523438 1.84375 -12.703125 C 1.8125 -13.453125 1.800781 -14.335938 1.8125 -15.359375 C 1.832031 -16.378906 1.851562 -17.375 1.875 -18.34375 C 1.894531 -19.3125 1.90625 -20.097656 1.90625 -20.703125 C 1.882812 -21.492188 2.03125 -22.269531 2.34375 -23.03125 C 2.65625 -23.800781 3.191406 -24.359375 3.953125 -24.703125 C 4.847656 -25.109375 5.789062 -25.3125 6.78125 -25.3125 C 7.78125 -25.3125 8.734375 -25.164062 9.640625 -24.875 C 10.316406 -24.757812 10.835938 -24.4375 11.203125 -23.90625 C 11.578125 -23.375 11.816406 -22.796875 11.921875 -22.171875 Z M 8.3125 -4.71875 C 8.40625 -7.070312 8.441406 -9.414062 8.421875 -11.75 C 8.398438 -14.09375 8.378906 -16.425781 8.359375 -18.75 L 8.359375 -18.796875 C 8.328125 -19.179688 8.316406 -19.601562 8.328125 -20.0625 C 8.347656 -20.53125 8.203125 -20.921875 7.890625 -21.234375 C 7.265625 -21.546875 6.679688 -21.585938 6.140625 -21.359375 C 5.597656 -21.140625 5.351562 -20.644531 5.40625 -19.875 C 5.425781 -17.613281 5.429688 -15.351562 5.421875 -13.09375 C 5.410156 -10.84375 5.414062 -8.59375 5.4375 -6.34375 C 5.457031 -6.03125 5.445312 -5.703125 5.40625 -5.359375 C 5.375 -5.023438 5.421875 -4.703125 5.546875 -4.390625 C 5.660156 -3.984375 5.925781 -3.738281 6.34375 -3.65625 C 6.769531 -3.570312 7.164062 -3.585938 7.53125 -3.703125 C 7.769531 -3.753906 7.945312 -3.878906 8.0625 -4.078125 C 8.1875 -4.285156 8.269531 -4.5 8.3125 -4.71875 Z M 8.3125 -4.71875 "/></g></g></g><g fill="#000000" fill-opacity="1"><g transform="translate(465.934346, 349.153156)"><g><path d="M 12.125 -5.046875 C 12.125 -4.734375 12.128906 -4.425781 12.140625 -4.125 C 12.160156 -3.820312 12.132812 -3.523438 12.0625 -3.234375 C 11.84375 -2.304688 11.457031 -1.609375 10.90625 -1.140625 C 10.351562 -0.671875 9.691406 -0.347656 8.921875 -0.171875 C 8.160156 -0.00390625 7.359375 0.0625 6.515625 0.03125 C 6.015625 0.0078125 5.53125 -0.0507812 5.0625 -0.15625 C 4.59375 -0.269531 4.128906 -0.410156 3.671875 -0.578125 C 3.046875 -0.816406 2.597656 -1.238281 2.328125 -1.84375 C 2.066406 -2.457031 1.914062 -3.066406 1.875 -3.671875 C 1.800781 -7.003906 1.773438 -10.335938 1.796875 -13.671875 C 1.828125 -17.015625 1.828125 -20.363281 1.796875 -23.71875 C 1.796875 -24.175781 1.800781 -24.515625 1.8125 -24.734375 C 1.832031 -24.953125 1.929688 -25.085938 2.109375 -25.140625 C 2.285156 -25.203125 2.625 -25.222656 3.125 -25.203125 C 3.488281 -25.203125 3.84375 -25.207031 4.1875 -25.21875 C 4.539062 -25.226562 4.894531 -25.222656 5.25 -25.203125 C 5.46875 -25.171875 5.578125 -25.046875 5.578125 -24.828125 C 5.578125 -24.617188 5.578125 -24.429688 5.578125 -24.265625 C 5.578125 -22.316406 5.566406 -20.289062 5.546875 -18.1875 C 5.523438 -16.09375 5.5 -14.050781 5.46875 -12.0625 C 5.5 -11.144531 5.492188 -10.234375 5.453125 -9.328125 C 5.421875 -8.429688 5.414062 -7.53125 5.4375 -6.625 C 5.4375 -6.332031 5.453125 -6.035156 5.484375 -5.734375 C 5.523438 -5.441406 5.566406 -5.160156 5.609375 -4.890625 C 5.753906 -4.296875 6.101562 -3.953125 6.65625 -3.859375 C 7.332031 -3.753906 7.828125 -3.859375 8.140625 -4.171875 C 8.453125 -4.484375 8.609375 -4.960938 8.609375 -5.609375 C 8.628906 -6.378906 8.625 -7.140625 8.59375 -7.890625 C 8.570312 -8.648438 8.5625 -9.414062 8.5625 -10.1875 C 8.5625 -10.8125 8.5625 -11.566406 8.5625 -12.453125 C 8.5625 -13.335938 8.5625 -14.269531 8.5625 -15.25 C 8.5625 -16.238281 8.5625 -17.1875 8.5625 -18.09375 C 8.5625 -19.007812 8.5625 -19.789062 8.5625 -20.4375 C 8.5625 -21.09375 8.5625 -21.53125 8.5625 -21.75 C 8.5625 -22.15625 8.5625 -22.550781 8.5625 -22.9375 C 8.5625 -23.320312 8.5625 -23.703125 8.5625 -24.078125 C 8.5625 -24.203125 8.5625 -24.320312 8.5625 -24.4375 C 8.5625 -24.5625 8.5625 -24.671875 8.5625 -24.765625 C 8.59375 -24.960938 8.644531 -25.09375 8.71875 -25.15625 C 8.78125 -25.226562 8.875 -25.265625 9 -25.265625 C 9.125 -25.265625 9.234375 -25.265625 9.328125 -25.265625 C 9.679688 -25.265625 10.046875 -25.265625 10.421875 -25.265625 C 10.796875 -25.265625 11.160156 -25.253906 11.515625 -25.234375 C 11.679688 -25.234375 11.835938 -25.21875 11.984375 -25.1875 C 12.128906 -25.164062 12.203125 -25.0625 12.203125 -24.875 C 12.203125 -21.5625 12.203125 -18.25 12.203125 -14.9375 C 12.203125 -11.625 12.175781 -8.328125 12.125 -5.046875 Z M 12.125 -5.046875 "/></g></g></g><g fill="#000000" fill-opacity="1"><g transform="translate(479.938377, 349.153156)"><g><path d="M 12.03125 -24.265625 C 11.976562 -23.898438 11.96875 -23.515625 12 -23.109375 C 12.039062 -22.703125 12.015625 -22.332031 11.921875 -22 C 11.773438 -21.851562 11.539062 -21.765625 11.21875 -21.734375 C 10.894531 -21.710938 10.554688 -21.710938 10.203125 -21.734375 C 9.859375 -21.765625 9.578125 -21.769531 9.359375 -21.75 C 8.992188 -21.71875 8.796875 -21.625 8.765625 -21.46875 C 8.734375 -21.3125 8.71875 -21.128906 8.71875 -20.921875 C 8.71875 -19.671875 8.71875 -18.394531 8.71875 -17.09375 C 8.71875 -15.800781 8.71875 -14.660156 8.71875 -13.671875 C 8.71875 -12.691406 8.71875 -12.035156 8.71875 -11.703125 C 8.71875 -10.304688 8.722656 -8.898438 8.734375 -7.484375 C 8.742188 -6.066406 8.75 -4.648438 8.75 -3.234375 C 8.75 -2.878906 8.75 -2.429688 8.75 -1.890625 C 8.75 -1.347656 8.75 -0.898438 8.75 -0.546875 C 8.769531 -0.304688 8.691406 -0.171875 8.515625 -0.140625 C 8.335938 -0.117188 8.160156 -0.109375 7.984375 -0.109375 C 7.554688 -0.128906 7.125 -0.117188 6.6875 -0.078125 C 6.257812 -0.046875 5.84375 -0.0664062 5.4375 -0.140625 C 5.144531 -0.265625 5.03125 -0.488281 5.09375 -0.8125 C 5.15625 -1.132812 5.160156 -1.414062 5.109375 -1.65625 C 5.085938 -4.875 5.082031 -8.085938 5.09375 -11.296875 C 5.101562 -14.515625 5.109375 -17.734375 5.109375 -20.953125 C 5.109375 -21.378906 5.039062 -21.625 4.90625 -21.6875 C 4.78125 -21.75 4.523438 -21.75 4.140625 -21.6875 C 3.753906 -21.625 3.191406 -21.644531 2.453125 -21.75 C 2.046875 -21.789062 1.84375 -21.960938 1.84375 -22.265625 C 1.84375 -22.566406 1.84375 -22.847656 1.84375 -23.109375 C 1.863281 -23.253906 1.859375 -23.488281 1.828125 -23.8125 C 1.804688 -24.132812 1.800781 -24.445312 1.8125 -24.75 C 1.832031 -25.050781 1.925781 -25.222656 2.09375 -25.265625 C 3.050781 -25.296875 4.128906 -25.300781 5.328125 -25.28125 C 6.523438 -25.269531 7.6875 -25.265625 8.8125 -25.265625 C 9.945312 -25.265625 10.863281 -25.28125 11.5625 -25.3125 C 11.84375 -25.332031 11.988281 -25.21875 12 -24.96875 C 12.019531 -24.71875 12.03125 -24.492188 12.03125 -24.296875 Z M 12.03125 -24.265625 "/></g></g></g><g fill="#000000" fill-opacity="1"><g transform="translate(493.762404, 349.153156)"><g><path d="M 5.46875 -0.640625 C 5.5 -0.378906 5.441406 -0.21875 5.296875 -0.15625 C 5.148438 -0.101562 4.96875 -0.0859375 4.75 -0.109375 C 4.414062 -0.109375 4.09375 -0.109375 3.78125 -0.109375 C 3.46875 -0.109375 3.144531 -0.109375 2.8125 -0.109375 C 2.375 -0.0859375 2.09375 -0.132812 1.96875 -0.25 C 1.851562 -0.375 1.800781 -0.554688 1.8125 -0.796875 C 1.832031 -1.035156 1.84375 -1.3125 1.84375 -1.625 C 1.8125 -2.144531 1.796875 -2.660156 1.796875 -3.171875 C 1.796875 -3.691406 1.796875 -4.207031 1.796875 -4.71875 C 1.828125 -8.101562 1.828125 -11.476562 1.796875 -14.84375 C 1.773438 -18.21875 1.789062 -21.597656 1.84375 -24.984375 C 1.882812 -25.148438 1.992188 -25.234375 2.171875 -25.234375 C 2.359375 -25.234375 2.519531 -25.242188 2.65625 -25.265625 C 3 -25.265625 3.378906 -25.265625 3.796875 -25.265625 C 4.210938 -25.265625 4.578125 -25.265625 4.890625 -25.265625 C 5.015625 -25.265625 5.132812 -25.226562 5.25 -25.15625 C 5.375 -25.09375 5.425781 -24.988281 5.40625 -24.84375 C 5.40625 -22.4375 5.40625 -20.207031 5.40625 -18.15625 C 5.40625 -16.101562 5.410156 -14.132812 5.421875 -12.25 C 5.429688 -10.375 5.441406 -8.488281 5.453125 -6.59375 C 5.460938 -4.695312 5.46875 -2.710938 5.46875 -0.640625 Z M 5.46875 -0.640625 "/></g></g></g><g fill="#000000" fill-opacity="1"><g transform="translate(501.034414, 349.153156)"><g><path d="M 11.921875 -22.171875 C 12.054688 -19.609375 12.097656 -17.035156 12.046875 -14.453125 C 12.003906 -11.867188 12 -9.296875 12.03125 -6.734375 C 12 -6.035156 11.992188 -5.296875 12.015625 -4.515625 C 12.046875 -3.734375 11.96875 -2.988281 11.78125 -2.28125 C 11.601562 -1.570312 11.179688 -1.003906 10.515625 -0.578125 C 9.960938 -0.316406 9.363281 -0.125 8.71875 0 C 8.71875 0.363281 8.71875 0.703125 8.71875 1.015625 C 8.71875 1.222656 8.722656 1.4375 8.734375 1.65625 C 8.742188 1.875 8.75 2.078125 8.75 2.265625 C 8.75 2.410156 8.734375 2.566406 8.703125 2.734375 C 8.679688 2.898438 8.585938 3 8.421875 3.03125 C 8.328125 3.050781 8.238281 3.0625 8.15625 3.0625 C 8.070312 3.0625 7.992188 3.0625 7.921875 3.0625 C 7.722656 3.0625 7.539062 3.0625 7.375 3.0625 C 7.207031 3.0625 7.039062 3.0625 6.875 3.0625 C 6.726562 3.0625 6.550781 3.0625 6.34375 3.0625 C 6.144531 3.0625 5.960938 3.0625 5.796875 3.0625 C 5.578125 3.0625 5.40625 3.03125 5.28125 2.96875 C 5.164062 2.90625 5.117188 2.769531 5.140625 2.5625 C 5.140625 2.195312 5.140625 1.820312 5.140625 1.4375 C 5.140625 1.050781 5.140625 0.738281 5.140625 0.5 C 5.140625 0.40625 5.140625 0.316406 5.140625 0.234375 C 5.140625 0.148438 5.140625 0.0703125 5.140625 0 C 4.691406 -0.09375 4.273438 -0.238281 3.890625 -0.4375 C 3.503906 -0.644531 3.15625 -0.90625 2.84375 -1.21875 C 2.601562 -1.4375 2.398438 -1.816406 2.234375 -2.359375 C 2.066406 -2.898438 1.945312 -3.46875 1.875 -4.0625 C 1.800781 -4.664062 1.773438 -5.171875 1.796875 -5.578125 C 1.828125 -6.773438 1.84375 -7.96875 1.84375 -9.15625 C 1.84375 -10.34375 1.84375 -11.523438 1.84375 -12.703125 C 1.8125 -13.453125 1.800781 -14.335938 1.8125 -15.359375 C 1.832031 -16.378906 1.851562 -17.375 1.875 -18.34375 C 1.894531 -19.3125 1.90625 -20.097656 1.90625 -20.703125 C 1.882812 -21.492188 2.03125 -22.269531 2.34375 -23.03125 C 2.65625 -23.800781 3.191406 -24.359375 3.953125 -24.703125 C 4.847656 -25.109375 5.789062 -25.3125 6.78125 -25.3125 C 7.78125 -25.3125 8.734375 -25.164062 9.640625 -24.875 C 10.316406 -24.757812 10.835938 -24.4375 11.203125 -23.90625 C 11.578125 -23.375 11.816406 -22.796875 11.921875 -22.171875 Z M 6.515625 -21.484375 C 6.109375 -21.460938 5.8125 -21.273438 5.625 -20.921875 C 5.445312 -20.578125 5.375 -20.226562 5.40625 -19.875 C 5.425781 -17.613281 5.429688 -15.351562 5.421875 -13.09375 C 5.410156 -10.84375 5.414062 -8.59375 5.4375 -6.34375 C 5.457031 -6.03125 5.445312 -5.703125 5.40625 -5.359375 C 5.375 -5.023438 5.421875 -4.703125 5.546875 -4.390625 C 5.660156 -3.984375 5.925781 -3.738281 6.34375 -3.65625 C 6.769531 -3.570312 7.164062 -3.585938 7.53125 -3.703125 C 7.769531 -3.753906 7.945312 -3.878906 8.0625 -4.078125 C 8.1875 -4.285156 8.269531 -4.5 8.3125 -4.71875 C 8.40625 -7.070312 8.441406 -9.414062 8.421875 -11.75 C 8.398438 -14.09375 8.378906 -16.425781 8.359375 -18.75 L 8.359375 -18.796875 C 8.328125 -19.179688 8.316406 -19.601562 8.328125 -20.0625 C 8.347656 -20.53125 8.203125 -20.921875 7.890625 -21.234375 C 7.671875 -21.378906 7.441406 -21.460938 7.203125 -21.484375 C 6.960938 -21.515625 6.734375 -21.515625 6.515625 -21.484375 Z M 6.515625 -21.484375 "/></g></g></g><g fill="#000000" fill-opacity="1"><g transform="translate(514.894444, 349.153156)"><g><path d="M 12.125 -5.046875 C 12.125 -4.734375 12.128906 -4.425781 12.140625 -4.125 C 12.160156 -3.820312 12.132812 -3.523438 12.0625 -3.234375 C 11.84375 -2.304688 11.457031 -1.609375 10.90625 -1.140625 C 10.351562 -0.671875 9.691406 -0.347656 8.921875 -0.171875 C 8.160156 -0.00390625 7.359375 0.0625 6.515625 0.03125 C 6.015625 0.0078125 5.53125 -0.0507812 5.0625 -0.15625 C 4.59375 -0.269531 4.128906 -0.410156 3.671875 -0.578125 C 3.046875 -0.816406 2.597656 -1.238281 2.328125 -1.84375 C 2.066406 -2.457031 1.914062 -3.066406 1.875 -3.671875 C 1.800781 -7.003906 1.773438 -10.335938 1.796875 -13.671875 C 1.828125 -17.015625 1.828125 -20.363281 1.796875 -23.71875 C 1.796875 -24.175781 1.800781 -24.515625 1.8125 -24.734375 C 1.832031 -24.953125 1.929688 -25.085938 2.109375 -25.140625 C 2.285156 -25.203125 2.625 -25.222656 3.125 -25.203125 C 3.488281 -25.203125 3.84375 -25.207031 4.1875 -25.21875 C 4.539062 -25.226562 4.894531 -25.222656 5.25 -25.203125 C 5.46875 -25.171875 5.578125 -25.046875 5.578125 -24.828125 C 5.578125 -24.617188 5.578125 -24.429688 5.578125 -24.265625 C 5.578125 -22.316406 5.566406 -20.289062 5.546875 -18.1875 C 5.523438 -16.09375 5.5 -14.050781 5.46875 -12.0625 C 5.5 -11.144531 5.492188 -10.234375 5.453125 -9.328125 C 5.421875 -8.429688 5.414062 -7.53125 5.4375 -6.625 C 5.4375 -6.332031 5.453125 -6.035156 5.484375 -5.734375 C 5.523438 -5.441406 5.566406 -5.160156 5.609375 -4.890625 C 5.753906 -4.296875 6.101562 -3.953125 6.65625 -3.859375 C 7.332031 -3.753906 7.828125 -3.859375 8.140625 -4.171875 C 8.453125 -4.484375 8.609375 -4.960938 8.609375 -5.609375 C 8.628906 -6.378906 8.625 -7.140625 8.59375 -7.890625 C 8.570312 -8.648438 8.5625 -9.414062 8.5625 -10.1875 C 8.5625 -10.8125 8.5625 -11.566406 8.5625 -12.453125 C 8.5625 -13.335938 8.5625 -14.269531 8.5625 -15.25 C 8.5625 -16.238281 8.5625 -17.1875 8.5625 -18.09375 C 8.5625 -19.007812 8.5625 -19.789062 8.5625 -20.4375 C 8.5625 -21.09375 8.5625 -21.53125 8.5625 -21.75 C 8.5625 -22.15625 8.5625 -22.550781 8.5625 -22.9375 C 8.5625 -23.320312 8.5625 -23.703125 8.5625 -24.078125 C 8.5625 -24.203125 8.5625 -24.320312 8.5625 -24.4375 C 8.5625 -24.5625 8.5625 -24.671875 8.5625 -24.765625 C 8.59375 -24.960938 8.644531 -25.09375 8.71875 -25.15625 C 8.78125 -25.226562 8.875 -25.265625 9 -25.265625 C 9.125 -25.265625 9.234375 -25.265625 9.328125 -25.265625 C 9.679688 -25.265625 10.046875 -25.265625 10.421875 -25.265625 C 10.796875 -25.265625 11.160156 -25.253906 11.515625 -25.234375 C 11.679688 -25.234375 11.835938 -25.21875 11.984375 -25.1875 C 12.128906 -25.164062 12.203125 -25.0625 12.203125 -24.875 C 12.203125 -21.5625 12.203125 -18.25 12.203125 -14.9375 C 12.203125 -11.625 12.175781 -8.328125 12.125 -5.046875 Z M 12.125 -5.046875 "/></g></g></g><g fill="#000000" fill-opacity="1"><g transform="translate(528.898476, 349.153156)"><g><path d="M 11.921875 -3.203125 C 11.941406 -3.085938 11.945312 -2.96875 11.9375 -2.84375 C 11.925781 -2.71875 11.921875 -2.597656 11.921875 -2.484375 C 11.890625 -1.835938 11.882812 -1.351562 11.90625 -1.03125 C 11.9375 -0.707031 11.914062 -0.476562 11.84375 -0.34375 C 11.769531 -0.207031 11.609375 -0.132812 11.359375 -0.125 C 11.109375 -0.113281 10.691406 -0.109375 10.109375 -0.109375 C 8.910156 -0.109375 7.722656 -0.101562 6.546875 -0.09375 C 5.367188 -0.0820312 4.179688 -0.0625 2.984375 -0.03125 C 2.765625 -0.0625 2.507812 -0.0820312 2.21875 -0.09375 C 1.9375 -0.101562 1.8125 -0.273438 1.84375 -0.609375 C 1.84375 -3.515625 1.84375 -6.421875 1.84375 -9.328125 C 1.84375 -12.234375 1.84375 -15.132812 1.84375 -18.03125 C 1.84375 -18.539062 1.84375 -19.039062 1.84375 -19.53125 C 1.84375 -20.019531 1.84375 -20.503906 1.84375 -20.984375 C 1.84375 -21.585938 1.832031 -22.175781 1.8125 -22.75 C 1.800781 -23.320312 1.796875 -23.910156 1.796875 -24.515625 C 1.796875 -24.679688 1.832031 -24.789062 1.90625 -24.84375 C 1.925781 -24.914062 1.984375 -24.957031 2.078125 -24.96875 C 2.179688 -24.976562 2.269531 -24.984375 2.34375 -24.984375 C 2.53125 -24.984375 2.722656 -24.988281 2.921875 -25 C 3.128906 -25.007812 3.34375 -25.015625 3.5625 -25.015625 C 4.3125 -24.992188 5.0625 -24.984375 5.8125 -24.984375 C 6.570312 -24.984375 7.320312 -24.984375 8.0625 -24.984375 C 8.445312 -24.984375 8.832031 -24.984375 9.21875 -24.984375 C 9.601562 -24.984375 9.988281 -24.984375 10.375 -24.984375 C 10.488281 -24.984375 10.601562 -24.984375 10.71875 -24.984375 C 10.84375 -24.984375 10.96875 -24.984375 11.09375 -24.984375 C 11.1875 -24.984375 11.285156 -24.976562 11.390625 -24.96875 C 11.503906 -24.957031 11.59375 -24.925781 11.65625 -24.875 C 11.726562 -24.820312 11.765625 -24.710938 11.765625 -24.546875 C 11.796875 -24.265625 11.8125 -23.957031 11.8125 -23.625 C 11.8125 -23.300781 11.8125 -22.988281 11.8125 -22.6875 C 11.8125 -22.5625 11.8125 -22.429688 11.8125 -22.296875 C 11.8125 -22.171875 11.8125 -22.046875 11.8125 -21.921875 C 11.8125 -21.660156 11.726562 -21.515625 11.5625 -21.484375 C 11.289062 -21.484375 10.832031 -21.476562 10.1875 -21.46875 C 9.539062 -21.457031 8.835938 -21.453125 8.078125 -21.453125 C 7.328125 -21.453125 6.660156 -21.453125 6.078125 -21.453125 C 6.003906 -21.453125 5.929688 -21.453125 5.859375 -21.453125 C 5.796875 -21.453125 5.726562 -21.429688 5.65625 -21.390625 C 5.4375 -21.316406 5.335938 -21.125 5.359375 -20.8125 C 5.335938 -20.332031 5.332031 -19.753906 5.34375 -19.078125 C 5.351562 -18.410156 5.359375 -17.847656 5.359375 -17.390625 C 5.359375 -16.929688 5.578125 -16.710938 6.015625 -16.734375 C 6.367188 -16.734375 6.8125 -16.734375 7.34375 -16.734375 C 7.875 -16.734375 8.363281 -16.734375 8.8125 -16.734375 C 9.269531 -16.734375 9.597656 -16.734375 9.796875 -16.734375 C 9.890625 -16.734375 9.960938 -16.722656 10.015625 -16.703125 C 10.078125 -16.648438 10.113281 -16.5625 10.125 -16.4375 C 10.144531 -16.320312 10.15625 -16.226562 10.15625 -16.15625 C 10.15625 -15.800781 10.15625 -15.441406 10.15625 -15.078125 C 10.15625 -14.722656 10.140625 -14.378906 10.109375 -14.046875 C 10.109375 -13.898438 10.101562 -13.75 10.09375 -13.59375 C 10.082031 -13.4375 9.992188 -13.34375 9.828125 -13.3125 C 9.367188 -13.25 8.894531 -13.222656 8.40625 -13.234375 C 7.914062 -13.242188 7.429688 -13.25 6.953125 -13.25 C 6.828125 -13.25 6.6875 -13.242188 6.53125 -13.234375 C 6.375 -13.222656 6.238281 -13.21875 6.125 -13.21875 C 6 -13.21875 5.875 -13.195312 5.75 -13.15625 C 5.632812 -13.125 5.554688 -13.054688 5.515625 -12.953125 C 5.441406 -12.835938 5.40625 -12.703125 5.40625 -12.546875 C 5.40625 -12.390625 5.40625 -12.25 5.40625 -12.125 C 5.40625 -12.03125 5.40625 -11.925781 5.40625 -11.8125 C 5.40625 -11.707031 5.40625 -11.609375 5.40625 -11.515625 C 5.40625 -10.296875 5.410156 -9.070312 5.421875 -7.84375 C 5.429688 -6.625 5.445312 -5.398438 5.46875 -4.171875 C 5.46875 -4.003906 5.503906 -3.882812 5.578125 -3.8125 C 5.671875 -3.695312 5.835938 -3.625 6.078125 -3.59375 C 6.660156 -3.59375 7.394531 -3.597656 8.28125 -3.609375 C 9.164062 -3.628906 9.921875 -3.640625 10.546875 -3.640625 C 10.859375 -3.640625 11.078125 -3.640625 11.203125 -3.640625 C 11.335938 -3.640625 11.488281 -3.625 11.65625 -3.59375 C 11.832031 -3.570312 11.921875 -3.441406 11.921875 -3.203125 Z M 11.921875 -3.203125 "/></g></g></g><g fill="#000000" fill-opacity="1"><g transform="translate(542.650507, 349.153156)"><g/></g></g><g fill="#000000" fill-opacity="1"><g transform="translate(549.886526, 349.153156)"><g><path d="M 14.578125 -25.234375 C 14.722656 -25.160156 14.769531 -25.039062 14.71875 -24.875 C 14.582031 -24.101562 14.421875 -23.207031 14.234375 -22.1875 C 14.054688 -21.164062 13.863281 -20.101562 13.65625 -19 C 13.457031 -17.90625 13.265625 -16.847656 13.078125 -15.828125 C 12.898438 -14.804688 12.738281 -13.914062 12.59375 -13.15625 C 12.457031 -12.40625 12.363281 -11.882812 12.3125 -11.59375 C 11.976562 -9.738281 11.65625 -7.867188 11.34375 -5.984375 C 11.03125 -4.109375 10.691406 -2.242188 10.328125 -0.390625 C 10.253906 -0.222656 10.140625 -0.140625 9.984375 -0.140625 C 9.828125 -0.140625 9.679688 -0.128906 9.546875 -0.109375 C 9.234375 -0.109375 8.921875 -0.109375 8.609375 -0.109375 C 8.296875 -0.109375 7.984375 -0.109375 7.671875 -0.109375 C 7.523438 -0.109375 7.378906 -0.113281 7.234375 -0.125 C 7.085938 -0.132812 6.941406 -0.140625 6.796875 -0.140625 C 6.421875 -0.117188 6.207031 -0.285156 6.15625 -0.640625 C 5.820312 -2.472656 5.492188 -4.320312 5.171875 -6.1875 C 4.847656 -8.0625 4.53125 -9.910156 4.21875 -11.734375 C 4.164062 -11.992188 4.066406 -12.492188 3.921875 -13.234375 C 3.773438 -13.984375 3.613281 -14.863281 3.4375 -15.875 C 3.257812 -16.882812 3.066406 -17.941406 2.859375 -19.046875 C 2.660156 -20.148438 2.46875 -21.210938 2.28125 -22.234375 C 2.101562 -23.253906 1.941406 -24.125 1.796875 -24.84375 C 1.753906 -25.082031 1.835938 -25.222656 2.046875 -25.265625 C 2.390625 -25.265625 2.78125 -25.265625 3.21875 -25.265625 C 3.664062 -25.265625 4.082031 -25.265625 4.46875 -25.265625 C 4.582031 -25.265625 4.71875 -25.265625 4.875 -25.265625 C 5.03125 -25.265625 5.171875 -25.21875 5.296875 -25.125 C 5.335938 -25.082031 5.367188 -25.023438 5.390625 -24.953125 C 5.421875 -24.878906 5.445312 -24.796875 5.46875 -24.703125 C 5.5 -24.628906 5.519531 -24.550781 5.53125 -24.46875 C 5.539062 -24.382812 5.554688 -24.304688 5.578125 -24.234375 C 5.597656 -24.054688 5.617188 -23.890625 5.640625 -23.734375 C 5.671875 -23.585938 5.695312 -23.441406 5.71875 -23.296875 C 5.820312 -22.691406 5.925781 -22.085938 6.03125 -21.484375 C 6.132812 -20.890625 6.25 -20.304688 6.375 -19.734375 C 6.488281 -18.890625 6.625 -18.054688 6.78125 -17.234375 C 6.9375 -16.421875 7.085938 -15.597656 7.234375 -14.765625 C 7.359375 -14.140625 7.476562 -13.457031 7.59375 -12.71875 C 7.71875 -11.988281 7.828125 -11.289062 7.921875 -10.625 C 7.941406 -10.5 7.988281 -10.363281 8.0625 -10.21875 C 8.132812 -10.082031 8.242188 -10.046875 8.390625 -10.109375 C 8.484375 -10.160156 8.539062 -10.28125 8.5625 -10.46875 C 8.664062 -11 8.757812 -11.546875 8.84375 -12.109375 C 8.925781 -12.671875 9.015625 -13.195312 9.109375 -13.6875 C 9.273438 -14.757812 9.453125 -15.800781 9.640625 -16.8125 C 9.835938 -17.820312 10.019531 -18.851562 10.1875 -19.90625 C 10.375 -20.71875 10.53125 -21.535156 10.65625 -22.359375 C 10.78125 -23.191406 10.925781 -24.019531 11.09375 -24.84375 C 11.132812 -25.082031 11.265625 -25.210938 11.484375 -25.234375 C 11.703125 -25.253906 11.90625 -25.265625 12.09375 -25.265625 C 12.425781 -25.265625 12.800781 -25.265625 13.21875 -25.265625 C 13.644531 -25.265625 14.003906 -25.265625 14.296875 -25.265625 C 14.410156 -25.265625 14.492188 -25.253906 14.546875 -25.234375 Z M 14.578125 -25.234375 "/></g></g></g><g fill="#000000" fill-opacity="1"><g transform="translate(566.410557, 349.153156)"><g><path d="M 11.921875 -3.203125 C 11.941406 -3.085938 11.945312 -2.96875 11.9375 -2.84375 C 11.925781 -2.71875 11.921875 -2.597656 11.921875 -2.484375 C 11.890625 -1.835938 11.882812 -1.351562 11.90625 -1.03125 C 11.9375 -0.707031 11.914062 -0.476562 11.84375 -0.34375 C 11.769531 -0.207031 11.609375 -0.132812 11.359375 -0.125 C 11.109375 -0.113281 10.691406 -0.109375 10.109375 -0.109375 C 8.910156 -0.109375 7.722656 -0.101562 6.546875 -0.09375 C 5.367188 -0.0820312 4.179688 -0.0625 2.984375 -0.03125 C 2.765625 -0.0625 2.507812 -0.0820312 2.21875 -0.09375 C 1.9375 -0.101562 1.8125 -0.273438 1.84375 -0.609375 C 1.84375 -3.515625 1.84375 -6.421875 1.84375 -9.328125 C 1.84375 -12.234375 1.84375 -15.132812 1.84375 -18.03125 C 1.84375 -18.539062 1.84375 -19.039062 1.84375 -19.53125 C 1.84375 -20.019531 1.84375 -20.503906 1.84375 -20.984375 C 1.84375 -21.585938 1.832031 -22.175781 1.8125 -22.75 C 1.800781 -23.320312 1.796875 -23.910156 1.796875 -24.515625 C 1.796875 -24.679688 1.832031 -24.789062 1.90625 -24.84375 C 1.925781 -24.914062 1.984375 -24.957031 2.078125 -24.96875 C 2.179688 -24.976562 2.269531 -24.984375 2.34375 -24.984375 C 2.53125 -24.984375 2.722656 -24.988281 2.921875 -25 C 3.128906 -25.007812 3.34375 -25.015625 3.5625 -25.015625 C 4.3125 -24.992188 5.0625 -24.984375 5.8125 -24.984375 C 6.570312 -24.984375 7.320312 -24.984375 8.0625 -24.984375 C 8.445312 -24.984375 8.832031 -24.984375 9.21875 -24.984375 C 9.601562 -24.984375 9.988281 -24.984375 10.375 -24.984375 C 10.488281 -24.984375 10.601562 -24.984375 10.71875 -24.984375 C 10.84375 -24.984375 10.96875 -24.984375 11.09375 -24.984375 C 11.1875 -24.984375 11.285156 -24.976562 11.390625 -24.96875 C 11.503906 -24.957031 11.59375 -24.925781 11.65625 -24.875 C 11.726562 -24.820312 11.765625 -24.710938 11.765625 -24.546875 C 11.796875 -24.265625 11.8125 -23.957031 11.8125 -23.625 C 11.8125 -23.300781 11.8125 -22.988281 11.8125 -22.6875 C 11.8125 -22.5625 11.8125 -22.429688 11.8125 -22.296875 C 11.8125 -22.171875 11.8125 -22.046875 11.8125 -21.921875 C 11.8125 -21.660156 11.726562 -21.515625 11.5625 -21.484375 C 11.289062 -21.484375 10.832031 -21.476562 10.1875 -21.46875 C 9.539062 -21.457031 8.835938 -21.453125 8.078125 -21.453125 C 7.328125 -21.453125 6.660156 -21.453125 6.078125 -21.453125 C 6.003906 -21.453125 5.929688 -21.453125 5.859375 -21.453125 C 5.796875 -21.453125 5.726562 -21.429688 5.65625 -21.390625 C 5.4375 -21.316406 5.335938 -21.125 5.359375 -20.8125 C 5.335938 -20.332031 5.332031 -19.753906 5.34375 -19.078125 C 5.351562 -18.410156 5.359375 -17.847656 5.359375 -17.390625 C 5.359375 -16.929688 5.578125 -16.710938 6.015625 -16.734375 C 6.367188 -16.734375 6.8125 -16.734375 7.34375 -16.734375 C 7.875 -16.734375 8.363281 -16.734375 8.8125 -16.734375 C 9.269531 -16.734375 9.597656 -16.734375 9.796875 -16.734375 C 9.890625 -16.734375 9.960938 -16.722656 10.015625 -16.703125 C 10.078125 -16.648438 10.113281 -16.5625 10.125 -16.4375 C 10.144531 -16.320312 10.15625 -16.226562 10.15625 -16.15625 C 10.15625 -15.800781 10.15625 -15.441406 10.15625 -15.078125 C 10.15625 -14.722656 10.140625 -14.378906 10.109375 -14.046875 C 10.109375 -13.898438 10.101562 -13.75 10.09375 -13.59375 C 10.082031 -13.4375 9.992188 -13.34375 9.828125 -13.3125 C 9.367188 -13.25 8.894531 -13.222656 8.40625 -13.234375 C 7.914062 -13.242188 7.429688 -13.25 6.953125 -13.25 C 6.828125 -13.25 6.6875 -13.242188 6.53125 -13.234375 C 6.375 -13.222656 6.238281 -13.21875 6.125 -13.21875 C 6 -13.21875 5.875 -13.195312 5.75 -13.15625 C 5.632812 -13.125 5.554688 -13.054688 5.515625 -12.953125 C 5.441406 -12.835938 5.40625 -12.703125 5.40625 -12.546875 C 5.40625 -12.390625 5.40625 -12.25 5.40625 -12.125 C 5.40625 -12.03125 5.40625 -11.925781 5.40625 -11.8125 C 5.40625 -11.707031 5.40625 -11.609375 5.40625 -11.515625 C 5.40625 -10.296875 5.410156 -9.070312 5.421875 -7.84375 C 5.429688 -6.625 5.445312 -5.398438 5.46875 -4.171875 C 5.46875 -4.003906 5.503906 -3.882812 5.578125 -3.8125 C 5.671875 -3.695312 5.835938 -3.625 6.078125 -3.59375 C 6.660156 -3.59375 7.394531 -3.597656 8.28125 -3.609375 C 9.164062 -3.628906 9.921875 -3.640625 10.546875 -3.640625 C 10.859375 -3.640625 11.078125 -3.640625 11.203125 -3.640625 C 11.335938 -3.640625 11.488281 -3.625 11.65625 -3.59375 C 11.832031 -3.570312 11.921875 -3.441406 11.921875 -3.203125 Z M 11.921875 -3.203125 "/></g></g></g><g fill="#000000" fill-opacity="1"><g transform="translate(580.162589, 349.153156)"><g><path d="M 12.203125 -1.515625 C 12.222656 -0.960938 12.210938 -0.582031 12.171875 -0.375 C 12.140625 -0.175781 12.015625 -0.0664062 11.796875 -0.046875 C 11.585938 -0.0351562 11.21875 -0.0195312 10.6875 0 C 10.351562 -0.0195312 10.03125 -0.0234375 9.71875 -0.015625 C 9.40625 -0.00390625 9.09375 -0.0078125 8.78125 -0.03125 C 8.539062 -0.0625 8.425781 -0.179688 8.4375 -0.390625 C 8.445312 -0.609375 8.441406 -0.800781 8.421875 -0.96875 C 8.421875 -2.894531 8.4375 -4.910156 8.46875 -7.015625 C 8.507812 -9.128906 8.53125 -11.179688 8.53125 -13.171875 C 8.53125 -14.085938 8.539062 -14.992188 8.5625 -15.890625 C 8.59375 -16.796875 8.609375 -17.703125 8.609375 -18.609375 C 8.578125 -18.898438 8.550781 -19.1875 8.53125 -19.46875 C 8.507812 -19.757812 8.460938 -20.050781 8.390625 -20.34375 C 8.265625 -20.9375 7.914062 -21.269531 7.34375 -21.34375 C 6.675781 -21.46875 6.191406 -21.375 5.890625 -21.0625 C 5.585938 -20.75 5.425781 -20.269531 5.40625 -19.625 C 5.375 -18.851562 5.367188 -18.082031 5.390625 -17.3125 C 5.421875 -16.539062 5.4375 -15.785156 5.4375 -15.046875 C 5.4375 -14.421875 5.441406 -13.664062 5.453125 -12.78125 C 5.460938 -11.894531 5.46875 -10.957031 5.46875 -9.96875 C 5.46875 -8.988281 5.46875 -8.039062 5.46875 -7.125 C 5.46875 -6.21875 5.46875 -5.429688 5.46875 -4.765625 C 5.46875 -4.109375 5.46875 -3.671875 5.46875 -3.453125 C 5.46875 -3.066406 5.46875 -2.679688 5.46875 -2.296875 C 5.46875 -1.921875 5.457031 -1.539062 5.4375 -1.15625 C 5.4375 -1.03125 5.4375 -0.90625 5.4375 -0.78125 C 5.4375 -0.664062 5.4375 -0.550781 5.4375 -0.4375 C 5.4375 -0.269531 5.398438 -0.148438 5.328125 -0.078125 C 5.234375 -0.00390625 5.128906 0.03125 5.015625 0.03125 C 4.910156 0.03125 4.800781 0.03125 4.6875 0.03125 C 4.320312 0.03125 3.953125 0.03125 3.578125 0.03125 C 3.210938 0.03125 2.847656 0.03125 2.484375 0.03125 C 2.335938 0.03125 2.1875 0.015625 2.03125 -0.015625 C 1.875 -0.0546875 1.796875 -0.171875 1.796875 -0.359375 C 1.796875 -3.671875 1.796875 -6.976562 1.796875 -10.28125 C 1.796875 -13.582031 1.820312 -16.890625 1.875 -20.203125 C 1.894531 -20.503906 1.898438 -20.804688 1.890625 -21.109375 C 1.878906 -21.410156 1.894531 -21.707031 1.9375 -22 C 2.15625 -22.90625 2.546875 -23.597656 3.109375 -24.078125 C 3.671875 -24.554688 4.335938 -24.878906 5.109375 -25.046875 C 5.878906 -25.222656 6.6875 -25.296875 7.53125 -25.265625 C 8.007812 -25.242188 8.488281 -25.175781 8.96875 -25.0625 C 9.445312 -24.957031 9.914062 -24.820312 10.375 -24.65625 C 10.96875 -24.414062 11.394531 -23.988281 11.65625 -23.375 C 11.925781 -22.769531 12.082031 -22.164062 12.125 -21.5625 C 12.195312 -18.226562 12.222656 -14.882812 12.203125 -11.53125 C 12.179688 -8.1875 12.179688 -4.847656 12.203125 -1.515625 Z M 12.203125 -1.515625 "/></g></g></g><g fill="#000000" fill-opacity="1"><g transform="translate(594.16662, 349.153156)"><g><path d="M 12.125 -5.046875 C 12.125 -4.734375 12.128906 -4.425781 12.140625 -4.125 C 12.160156 -3.820312 12.132812 -3.523438 12.0625 -3.234375 C 11.84375 -2.304688 11.457031 -1.609375 10.90625 -1.140625 C 10.351562 -0.671875 9.691406 -0.347656 8.921875 -0.171875 C 8.160156 -0.00390625 7.359375 0.0625 6.515625 0.03125 C 6.015625 0.0078125 5.53125 -0.0507812 5.0625 -0.15625 C 4.59375 -0.269531 4.128906 -0.410156 3.671875 -0.578125 C 3.046875 -0.816406 2.597656 -1.238281 2.328125 -1.84375 C 2.066406 -2.457031 1.914062 -3.066406 1.875 -3.671875 C 1.800781 -7.003906 1.773438 -10.335938 1.796875 -13.671875 C 1.828125 -17.015625 1.828125 -20.363281 1.796875 -23.71875 C 1.796875 -24.175781 1.800781 -24.515625 1.8125 -24.734375 C 1.832031 -24.953125 1.929688 -25.085938 2.109375 -25.140625 C 2.285156 -25.203125 2.625 -25.222656 3.125 -25.203125 C 3.488281 -25.203125 3.84375 -25.207031 4.1875 -25.21875 C 4.539062 -25.226562 4.894531 -25.222656 5.25 -25.203125 C 5.46875 -25.171875 5.578125 -25.046875 5.578125 -24.828125 C 5.578125 -24.617188 5.578125 -24.429688 5.578125 -24.265625 C 5.578125 -22.316406 5.566406 -20.289062 5.546875 -18.1875 C 5.523438 -16.09375 5.5 -14.050781 5.46875 -12.0625 C 5.5 -11.144531 5.492188 -10.234375 5.453125 -9.328125 C 5.421875 -8.429688 5.414062 -7.53125 5.4375 -6.625 C 5.4375 -6.332031 5.453125 -6.035156 5.484375 -5.734375 C 5.523438 -5.441406 5.566406 -5.160156 5.609375 -4.890625 C 5.753906 -4.296875 6.101562 -3.953125 6.65625 -3.859375 C 7.332031 -3.753906 7.828125 -3.859375 8.140625 -4.171875 C 8.453125 -4.484375 8.609375 -4.960938 8.609375 -5.609375 C 8.628906 -6.378906 8.625 -7.140625 8.59375 -7.890625 C 8.570312 -8.648438 8.5625 -9.414062 8.5625 -10.1875 C 8.5625 -10.8125 8.5625 -11.566406 8.5625 -12.453125 C 8.5625 -13.335938 8.5625 -14.269531 8.5625 -15.25 C 8.5625 -16.238281 8.5625 -17.1875 8.5625 -18.09375 C 8.5625 -19.007812 8.5625 -19.789062 8.5625 -20.4375 C 8.5625 -21.09375 8.5625 -21.53125 8.5625 -21.75 C 8.5625 -22.15625 8.5625 -22.550781 8.5625 -22.9375 C 8.5625 -23.320312 8.5625 -23.703125 8.5625 -24.078125 C 8.5625 -24.203125 8.5625 -24.320312 8.5625 -24.4375 C 8.5625 -24.5625 8.5625 -24.671875 8.5625 -24.765625 C 8.59375 -24.960938 8.644531 -25.09375 8.71875 -25.15625 C 8.78125 -25.226562 8.875 -25.265625 9 -25.265625 C 9.125 -25.265625 9.234375 -25.265625 9.328125 -25.265625 C 9.679688 -25.265625 10.046875 -25.265625 10.421875 -25.265625 C 10.796875 -25.265625 11.160156 -25.253906 11.515625 -25.234375 C 11.679688 -25.234375 11.835938 -25.21875 11.984375 -25.1875 C 12.128906 -25.164062 12.203125 -25.0625 12.203125 -24.875 C 12.203125 -21.5625 12.203125 -18.25 12.203125 -14.9375 C 12.203125 -11.625 12.175781 -8.328125 12.125 -5.046875 Z M 12.125 -5.046875 "/></g></g></g><g fill="#000000" fill-opacity="1"><g transform="translate(608.170651, 349.153156)"><g><path d="M 11.921875 -3.203125 C 11.941406 -3.085938 11.945312 -2.96875 11.9375 -2.84375 C 11.925781 -2.71875 11.921875 -2.597656 11.921875 -2.484375 C 11.890625 -1.835938 11.882812 -1.351562 11.90625 -1.03125 C 11.9375 -0.707031 11.914062 -0.476562 11.84375 -0.34375 C 11.769531 -0.207031 11.609375 -0.132812 11.359375 -0.125 C 11.109375 -0.113281 10.691406 -0.109375 10.109375 -0.109375 C 8.910156 -0.109375 7.722656 -0.101562 6.546875 -0.09375 C 5.367188 -0.0820312 4.179688 -0.0625 2.984375 -0.03125 C 2.765625 -0.0625 2.507812 -0.0820312 2.21875 -0.09375 C 1.9375 -0.101562 1.8125 -0.273438 1.84375 -0.609375 C 1.84375 -3.515625 1.84375 -6.421875 1.84375 -9.328125 C 1.84375 -12.234375 1.84375 -15.132812 1.84375 -18.03125 C 1.84375 -18.539062 1.84375 -19.039062 1.84375 -19.53125 C 1.84375 -20.019531 1.84375 -20.503906 1.84375 -20.984375 C 1.84375 -21.585938 1.832031 -22.175781 1.8125 -22.75 C 1.800781 -23.320312 1.796875 -23.910156 1.796875 -24.515625 C 1.796875 -24.679688 1.832031 -24.789062 1.90625 -24.84375 C 1.925781 -24.914062 1.984375 -24.957031 2.078125 -24.96875 C 2.179688 -24.976562 2.269531 -24.984375 2.34375 -24.984375 C 2.53125 -24.984375 2.722656 -24.988281 2.921875 -25 C 3.128906 -25.007812 3.34375 -25.015625 3.5625 -25.015625 C 4.3125 -24.992188 5.0625 -24.984375 5.8125 -24.984375 C 6.570312 -24.984375 7.320312 -24.984375 8.0625 -24.984375 C 8.445312 -24.984375 8.832031 -24.984375 9.21875 -24.984375 C 9.601562 -24.984375 9.988281 -24.984375 10.375 -24.984375 C 10.488281 -24.984375 10.601562 -24.984375 10.71875 -24.984375 C 10.84375 -24.984375 10.96875 -24.984375 11.09375 -24.984375 C 11.1875 -24.984375 11.285156 -24.976562 11.390625 -24.96875 C 11.503906 -24.957031 11.59375 -24.925781 11.65625 -24.875 C 11.726562 -24.820312 11.765625 -24.710938 11.765625 -24.546875 C 11.796875 -24.265625 11.8125 -23.957031 11.8125 -23.625 C 11.8125 -23.300781 11.8125 -22.988281 11.8125 -22.6875 C 11.8125 -22.5625 11.8125 -22.429688 11.8125 -22.296875 C 11.8125 -22.171875 11.8125 -22.046875 11.8125 -21.921875 C 11.8125 -21.660156 11.726562 -21.515625 11.5625 -21.484375 C 11.289062 -21.484375 10.832031 -21.476562 10.1875 -21.46875 C 9.539062 -21.457031 8.835938 -21.453125 8.078125 -21.453125 C 7.328125 -21.453125 6.660156 -21.453125 6.078125 -21.453125 C 6.003906 -21.453125 5.929688 -21.453125 5.859375 -21.453125 C 5.796875 -21.453125 5.726562 -21.429688 5.65625 -21.390625 C 5.4375 -21.316406 5.335938 -21.125 5.359375 -20.8125 C 5.335938 -20.332031 5.332031 -19.753906 5.34375 -19.078125 C 5.351562 -18.410156 5.359375 -17.847656 5.359375 -17.390625 C 5.359375 -16.929688 5.578125 -16.710938 6.015625 -16.734375 C 6.367188 -16.734375 6.8125 -16.734375 7.34375 -16.734375 C 7.875 -16.734375 8.363281 -16.734375 8.8125 -16.734375 C 9.269531 -16.734375 9.597656 -16.734375 9.796875 -16.734375 C 9.890625 -16.734375 9.960938 -16.722656 10.015625 -16.703125 C 10.078125 -16.648438 10.113281 -16.5625 10.125 -16.4375 C 10.144531 -16.320312 10.15625 -16.226562 10.15625 -16.15625 C 10.15625 -15.800781 10.15625 -15.441406 10.15625 -15.078125 C 10.15625 -14.722656 10.140625 -14.378906 10.109375 -14.046875 C 10.109375 -13.898438 10.101562 -13.75 10.09375 -13.59375 C 10.082031 -13.4375 9.992188 -13.34375 9.828125 -13.3125 C 9.367188 -13.25 8.894531 -13.222656 8.40625 -13.234375 C 7.914062 -13.242188 7.429688 -13.25 6.953125 -13.25 C 6.828125 -13.25 6.6875 -13.242188 6.53125 -13.234375 C 6.375 -13.222656 6.238281 -13.21875 6.125 -13.21875 C 6 -13.21875 5.875 -13.195312 5.75 -13.15625 C 5.632812 -13.125 5.554688 -13.054688 5.515625 -12.953125 C 5.441406 -12.835938 5.40625 -12.703125 5.40625 -12.546875 C 5.40625 -12.390625 5.40625 -12.25 5.40625 -12.125 C 5.40625 -12.03125 5.40625 -11.925781 5.40625 -11.8125 C 5.40625 -11.707031 5.40625 -11.609375 5.40625 -11.515625 C 5.40625 -10.296875 5.410156 -9.070312 5.421875 -7.84375 C 5.429688 -6.625 5.445312 -5.398438 5.46875 -4.171875 C 5.46875 -4.003906 5.503906 -3.882812 5.578125 -3.8125 C 5.671875 -3.695312 5.835938 -3.625 6.078125 -3.59375 C 6.660156 -3.59375 7.394531 -3.597656 8.28125 -3.609375 C 9.164062 -3.628906 9.921875 -3.640625 10.546875 -3.640625 C 10.859375 -3.640625 11.078125 -3.640625 11.203125 -3.640625 C 11.335938 -3.640625 11.488281 -3.625 11.65625 -3.59375 C 11.832031 -3.570312 11.921875 -3.441406 11.921875 -3.203125 Z M 11.921875 -3.203125 "/></g></g></g></svg>